<?xml version="1.0" encoding="UTF-8" standalone="no"?>
<!DOCTYPE svg PUBLIC "-//W3C//DTD SVG 1.1//EN" "http://www.w3.org/Graphics/SVG/1.1/DTD/svg11.dtd">
<svg version="1.1" xmlns="http://www.w3.org/2000/svg" xmlns:xlink="http://www.w3.org/1999/xlink" preserveAspectRatio="xMidYMid meet" viewBox="0 0 400 900" width="400" height="900"><defs><path d="M168.19 847.3C170.13 811.24 171.34 788.71 171.83 779.7C173.44 749.74 184.23 721 202.72 697.38C240.31 649.34 302.99 569.25 335.17 528.14C365.88 488.9 359.11 432.22 320.03 401.3C288.86 376.65 251.14 346.81 216.26 319.22C182.45 292.47 158.2 255.51 147.14 213.84C141.34 192 126.84 137.39 103.65 50.01" id="a23xEvtED8"></path><path d="M135.61 103.31C135.61 125.02 117.97 142.66 96.26 142.66C74.54 142.66 56.91 125.02 56.91 103.31C56.91 81.59 74.54 63.96 96.26 63.96C117.97 63.96 135.61 81.59 135.61 103.31Z" id="a8EqjlrDg"></path><path d="M200 767.53C200 781.84 188.39 793.45 174.09 793.45C159.79 793.45 148.18 781.84 148.18 767.53C148.18 753.23 159.79 741.62 174.09 741.62C188.39 741.62 200 753.23 200 767.53Z" id="egUcFI5h8"></path><path d="M249.19 314.03C249.19 328.33 237.58 339.94 223.28 339.94C208.98 339.94 197.36 328.33 197.36 314.03C197.36 299.73 208.98 288.11 223.28 288.11C237.58 288.11 249.19 299.73 249.19 314.03Z" id="bD0SnI3A9"></path><path d="M290.76 626.26C290.76 640.57 279.15 652.18 264.85 652.18C250.55 652.18 238.94 640.57 238.94 626.26C238.94 611.96 250.55 600.35 264.85 600.35C279.15 600.35 290.76 611.96 290.76 626.26Z" id="m9RFYnYRxO"></path><path d="M388.91 461.61C388.91 475.91 377.3 487.52 363 487.52C348.69 487.52 337.08 475.91 337.08 461.61C337.08 447.31 348.69 435.7 363 435.7C377.3 435.7 388.91 447.31 388.91 461.61Z" id="beEtFK3HT"></path><path d="M188.35 849.71C188.35 864.01 176.74 875.63 162.43 875.63C148.13 875.63 136.52 864.01 136.52 849.71C136.52 835.41 148.13 823.8 162.43 823.8C176.74 823.8 188.35 835.41 188.35 849.71Z" id="f1bfMEwZXy"></path><path d="M188.35 237.76C188.35 252.06 176.74 263.67 162.43 263.67C148.13 263.67 136.52 252.06 136.52 237.76C136.52 223.46 148.13 211.85 162.43 211.85C176.74 211.85 188.35 223.46 188.35 237.76Z" id="a30OSXz4lv"></path><path d="M129.56 50.01C129.56 64.31 117.95 75.92 103.65 75.92C89.35 75.92 77.74 64.31 77.74 50.01C77.74 35.71 89.35 24.1 103.65 24.1C117.95 24.1 129.56 35.71 129.56 50.01Z" id="c2TgoK1YEY"></path><path d="M363.17 519.95C372.42 497.15 364.14 471 343.46 457.68C337.53 453.86 350.59 462.27 343.46 457.68C326.69 446.88 304.46 450.69 292.23 466.44C276.69 486.48 250.01 520.86 234.06 541.43C224.12 554.25 204.78 554.35 194.71 541.63C191.19 537.18 198.67 546.63 194.71 541.63C184.39 528.6 184.4 510.18 194.74 497.16C198.12 492.89 188.6 504.89 191.47 501.27C203.07 486.66 223.64 482.76 239.79 492.11C261.59 504.75 295 524.1 315.83 536.17C333.26 546.26 355.59 538.61 363.17 519.95C366.36 512.09 360.3 527.02 363.17 519.95Z" id="bgbHdGYdq"></path><path d="M337.08 171.22C337.08 207.95 307.27 237.76 270.55 237.76C233.82 237.76 204.01 207.95 204.01 171.22C204.01 134.5 233.82 104.69 270.55 104.69C307.27 104.69 337.08 134.5 337.08 171.22Z" id="b87oOAxJP"></path><path d="M33.83 268.71L46.25 333.68" id="bKwiGRZ52"></path><path d="M55.61 276.47L39.95 297.73L11.99 288.26" id="balBXDIfP"></path><path d="M62.67 298.59L45.39 316.7L17.4 307.65" id="h1gPKCL6Zx"></path><path d="M106.73 268.71L102.13 366.85" id="b3Dmkk03S3"></path><path d="M139.74 293.93L106.84 316.99L71.12 289.78" id="a1KxShMY6M"></path><path d="M139.26 329.26L105.56 346.99L69.59 320.36" id="c53rJQHkq"></path><path d="M210.28 403.06L211.08 466.27" id="b5bbt6cy0P"></path><path d="M232.16 414.24L211.45 430.62L186.98 414.13" id="bqqks8dWN"></path><path d="M233.15 437.44L211.71 450.36L187.09 434.26" id="bed95UFGm"></path><path d="M107.79 658.48L127.24 697.31" id="c1b6LzrSkp"></path><path d="M121.66 657.25L115.04 674.14L94.81 672.83" id="bM9XWbttU"></path><path d="M130.28 670.67L122.03 685.76L101.85 684.73" id="bhrWN0diA"></path><path d="M223.28 789.33L153.34 606.06L88.86 560.76L42.12 627.9L74.97 810.76" id="gIuV7QRNZ"></path><path d="M168.82 75.46L165.17 133.91" id="aeeq2ZtFY"></path><path d="M185.79 86.91L167.68 101.69L145.79 87.42" id="a3Qp4FRyYd"></path><path d="M186.98 107.44L168.17 119.16L146.16 105.24" id="aFhCcX1Qg"></path><path d="M79.41 402.39L66.42 443.83" id="amlKwIq7l"></path><path d="M90.25 411.14L73.75 418.69L60.11 403.69" id="bEKrxsowC"></path><path d="M87.12 426.78L70.7 431.9L56.91 417.14" id="a2wd98eWIU"></path><path d="M125.87 746.41L115.77 788.65" id="a1aU7DhH9t"></path><path d="M137.28 754.39L121.34 763.06L106.7 749.04" id="l71Gxkq4je"></path><path d="M135.23 770.22L119.21 776.46L104.43 762.68" id="cgnkk5Lh6"></path></defs><g><g><g><g><use xlink:href="#a23xEvtED8" opacity="1" fill-opacity="0" stroke="#5e6be7" stroke-width="5" stroke-opacity="1"></use></g></g><g><use xlink:href="#a8EqjlrDg" opacity="1" fill="#ffffff" fill-opacity="0"></use><g><use xlink:href="#a8EqjlrDg" opacity="1" fill-opacity="0" stroke="#5e6be7" stroke-width="8" stroke-opacity="0.42"></use></g></g><g><use xlink:href="#egUcFI5h8" opacity="1" fill="#ffffff" fill-opacity="1"></use><g><use xlink:href="#egUcFI5h8" opacity="1" fill-opacity="0" stroke="#5e6be7" stroke-width="5" stroke-opacity="1"></use></g></g><g><use xlink:href="#bD0SnI3A9" opacity="1" fill="#ffffff" fill-opacity="1"></use><g><use xlink:href="#bD0SnI3A9" opacity="1" fill-opacity="0" stroke="#5e6be7" stroke-width="5" stroke-opacity="1"></use></g></g><g><use xlink:href="#m9RFYnYRxO" opacity="1" fill="#ffffff" fill-opacity="1"></use><g><use xlink:href="#m9RFYnYRxO" opacity="1" fill-opacity="0" stroke="#5e6be7" stroke-width="5" stroke-opacity="1"></use></g></g><g><use xlink:href="#beEtFK3HT" opacity="1" fill="#ffffff" fill-opacity="1"></use><g><use xlink:href="#beEtFK3HT" opacity="1" fill-opacity="0" stroke="#5e6be7" stroke-width="5" stroke-opacity="1"></use></g></g><g><use xlink:href="#f1bfMEwZXy" opacity="1" fill="#ffffff" fill-opacity="1"></use><g><use xlink:href="#f1bfMEwZXy" opacity="1" fill-opacity="0" stroke="#5e6be7" stroke-width="5" stroke-opacity="1"></use></g></g><g><use xlink:href="#a30OSXz4lv" opacity="1" fill="#ffffff" fill-opacity="1"></use><g><use xlink:href="#a30OSXz4lv" opacity="1" fill-opacity="0" stroke="#5e6be7" stroke-width="5" stroke-opacity="1"></use></g></g><g><use xlink:href="#c2TgoK1YEY" opacity="1" fill="#ffffff" fill-opacity="1"></use><g><use xlink:href="#c2TgoK1YEY" opacity="1" fill-opacity="0" stroke="#5e6be7" stroke-width="5" stroke-opacity="1"></use></g></g><g><g><use xlink:href="#bgbHdGYdq" opacity="1" fill-opacity="0" stroke="#5e6be7" stroke-width="15" stroke-opacity="0.42"></use></g></g><g><use xlink:href="#b87oOAxJP" opacity="1" fill="#ffffff" fill-opacity="0"></use><g><use xlink:href="#b87oOAxJP" opacity="1" fill-opacity="0" stroke="#f1b562" stroke-width="16" stroke-opacity="0.42"></use></g></g><g><g><use xlink:href="#bKwiGRZ52" opacity="1" fill-opacity="0" stroke="#5e6be7" stroke-width="9" stroke-opacity="0.42"></use></g></g><g><g><use xlink:href="#balBXDIfP" opacity="1" fill-opacity="0" stroke="#5e6be7" stroke-width="9" stroke-opacity="0.42"></use></g></g><g><g><use xlink:href="#h1gPKCL6Zx" opacity="1" fill-opacity="0" stroke="#5e6be7" stroke-width="9" stroke-opacity="0.42"></use></g></g><g><g><use xlink:href="#b3Dmkk03S3" opacity="1" fill-opacity="0" stroke="#5e6be7" stroke-width="12" stroke-opacity="0.42"></use></g></g><g><g><use xlink:href="#a1KxShMY6M" opacity="1" fill-opacity="0" stroke="#5e6be7" stroke-width="12" stroke-opacity="0.42"></use></g></g><g><g><use xlink:href="#c53rJQHkq" opacity="1" fill-opacity="0" stroke="#5e6be7" stroke-width="12" stroke-opacity="0.42"></use></g></g><g><g><use xlink:href="#b5bbt6cy0P" opacity="1" fill-opacity="0" stroke="#5e6be7" stroke-width="9" stroke-opacity="0.42"></use></g></g><g><g><use xlink:href="#bqqks8dWN" opacity="1" fill-opacity="0" stroke="#5e6be7" stroke-width="9" stroke-opacity="0.42"></use></g></g><g><g><use xlink:href="#bed95UFGm" opacity="1" fill-opacity="0" stroke="#5e6be7" stroke-width="9" stroke-opacity="0.42"></use></g></g><g><g><use xlink:href="#c1b6LzrSkp" opacity="1" fill-opacity="0" stroke="#5e6be7" stroke-width="6" stroke-opacity="0.42"></use></g></g><g><g><use xlink:href="#bM9XWbttU" opacity="1" fill-opacity="0" stroke="#5e6be7" stroke-width="6" stroke-opacity="0.42"></use></g></g><g><g><use xlink:href="#bhrWN0diA" opacity="1" fill-opacity="0" stroke="#5e6be7" stroke-width="6" stroke-opacity="0.42"></use></g></g><g><g><use xlink:href="#gIuV7QRNZ" opacity="1" fill-opacity="0" stroke="#f1b562" stroke-width="16" stroke-opacity="0.42"></use></g></g><g><g><use xlink:href="#aeeq2ZtFY" opacity="1" fill-opacity="0" stroke="#5e6be7" stroke-width="9" stroke-opacity="0.42"></use></g></g><g><g><use xlink:href="#a3Qp4FRyYd" opacity="1" fill-opacity="0" stroke="#5e6be7" stroke-width="9" stroke-opacity="0.42"></use></g></g><g><g><use xlink:href="#aFhCcX1Qg" opacity="1" fill-opacity="0" stroke="#5e6be7" stroke-width="9" stroke-opacity="0.42"></use></g></g><g><g><use xlink:href="#amlKwIq7l" opacity="1" fill-opacity="0" stroke="#5d6be7" stroke-width="6" stroke-opacity="0.42"></use></g></g><g><g><use xlink:href="#bEKrxsowC" opacity="1" fill-opacity="0" stroke="#5d6be7" stroke-width="6" stroke-opacity="0.42"></use></g></g><g><g><use xlink:href="#a2wd98eWIU" opacity="1" fill-opacity="0" stroke="#5d6be7" stroke-width="6" stroke-opacity="0.42"></use></g></g><g><g><use xlink:href="#a1aU7DhH9t" opacity="1" fill-opacity="0" stroke="#5d6be7" stroke-width="6" stroke-opacity="0.42"></use></g></g><g><g><use xlink:href="#l71Gxkq4je" opacity="1" fill-opacity="0" stroke="#5d6be7" stroke-width="6" stroke-opacity="0.42"></use></g></g><g><g><use xlink:href="#cgnkk5Lh6" opacity="1" fill-opacity="0" stroke="#5d6be7" stroke-width="6" stroke-opacity="0.42"></use></g></g></g></g></svg>