<?xml version="1.0" encoding="UTF-8" standalone="no"?>
<!DOCTYPE svg PUBLIC "-//W3C//DTD SVG 1.1//EN" "http://www.w3.org/Graphics/SVG/1.1/DTD/svg11.dtd">
<svg version="1.1" xmlns="http://www.w3.org/2000/svg" xmlns:xlink="http://www.w3.org/1999/xlink" preserveAspectRatio="xMidYMid meet" viewBox="0 0 296 210.16" width="296" height="210.16"><defs><path d="M24.91 52.77L25.82 52.8L26.72 52.84L27.63 52.89L28.53 52.95L29.43 53.02L30.34 53.11L31.24 53.2L32.13 53.31L33.03 53.43L33.93 53.56L34.82 53.7L35.71 53.86L36.61 54.02L37.49 54.2L38.38 54.38L39.27 54.58L40.15 54.79L41.03 55.01L41.91 55.25L42.78 55.49L43.65 55.74L44.52 56.01L45.39 56.29L46.25 56.58L47.11 56.88L47.97 57.19L48.82 57.51L66.03 64.15L67.49 64.7L68.95 65.23L70.41 65.73L71.89 66.22L73.36 66.68L74.85 67.12L76.33 67.54L77.83 67.93L79.33 68.31L80.83 68.66L82.33 68.99L83.84 69.3L85.36 69.59L86.88 69.85L88.4 70.09L89.92 70.31L91.45 70.51L92.97 70.69L94.51 70.85L96.04 70.98L97.57 71.09L99.11 71.18L100.65 71.24L102.19 71.29L103.73 71.31L105.27 71.31L106.81 71.29L108.35 71.25L109.89 71.18L111.43 71.09L112.96 70.98L114.5 70.85L116.04 70.69L117.58 70.51L119.11 70.31L120.64 70.09L122.17 69.84L123.7 69.58L125.22 69.29L126.75 68.98L144.76 65.14L148 64.48L151.25 63.86L154.51 63.29L157.77 62.77L161.03 62.3L164.3 61.87L167.57 61.49L170.84 61.16L174.12 60.87L177.4 60.63L180.68 60.44L183.96 60.3L187.24 60.21L190.52 60.16L193.8 60.16L197.08 60.2L200.36 60.29L203.64 60.43L206.91 60.62L210.18 60.86L213.45 61.14L216.71 61.46L219.97 61.84L223.22 62.26L226.47 62.73L229.71 63.24L232.94 63.8L236.16 64.41L236.55 64.49L236.52 64.5L235.44 65.32L234.53 66.34L233.82 67.56L233.37 68.9L233.2 70.26L233.3 71.61L233.65 72.9L234.24 74.1L235.05 75.18L236.08 76.09L237.3 76.8L238.64 77.25L240 77.42L241.34 77.32L242.63 76.97L243.83 76.38L244.91 75.57L245.82 74.54L246.53 73.32L246.98 71.98L247.15 70.62L247.05 69.28L246.7 67.99L246.11 66.78L245.94 66.55L248.99 67.31L252.17 68.15L255.34 69.04L258.5 69.97L261.65 70.95L264.79 71.98L267.91 73.05L271.03 74.17L274.12 75.33L305.89 87.54L307.98 88.32L310.08 89.06L312.19 89.76L314.31 90.42L316.44 91.04L318.57 91.62L320.72 92.17L322.87 92.67L325.03 93.13L327.19 93.55L329.36 93.94L331.54 94.28L333.72 94.58L335.9 94.85L338.09 95.07L340.28 95.26L342.47 95.4L344.67 95.51L346.86 95.57L349.06 95.6L351.26 95.58L353.45 95.53L355.65 95.43L357.84 95.3L360.03 95.12L362.22 94.91L364.41 94.66L366.59 94.36L368.76 94.03L370.94 93.66L373.1 93.24L375.27 92.79L377.42 92.3L379.57 91.77L381.71 91.2L383.84 90.58L385.96 89.93L388.08 89.24L390.18 88.51L392.27 87.74L449.68 65.99L354.87 207.98L353.12 207.9L351.29 207.81L349.46 207.69L347.63 207.54L345.8 207.37L343.98 207.17L342.17 206.95L340.36 206.71L338.55 206.44L336.75 206.14L334.95 205.83L333.16 205.48L331.37 205.12L329.59 204.73L327.82 204.31L326.05 203.88L324.29 203.41L322.53 202.93L320.78 202.42L319.04 201.89L317.31 201.33L315.58 200.75L313.87 200.15L312.16 199.52L310.46 198.87L308.76 198.2L307.08 197.51L305.4 196.79L303.74 196.05L302.08 195.28L300.44 194.5L298.8 193.69L297.18 192.86L295.56 192L293.96 191.13L292.36 190.23L290.78 189.31L289.21 188.37L287.65 187.4L286.1 186.41L284.57 185.41L246.29 159.87L244.09 158.42L241.87 157.01L239.64 155.63L237.38 154.28L235.11 152.96L234.38 152.55L241.38 103.39L258.5 122.17L264.86 116.24L239.5 82.25L199.04 111.27L205.36 119.84L231.08 102.63L226.99 148.59L225.88 148.02L223.53 146.87L221.17 145.75L218.79 144.66L216.4 143.61L214 142.59L211.58 141.6L209.15 140.65L206.71 139.73L204.25 138.85L201.79 138L199.31 137.18L196.82 136.4L194.32 135.65L191.81 134.94L189.29 134.26L186.76 133.62L184.22 133.01L181.68 132.44L179.12 131.9L176.56 131.39L173.99 130.93L171.41 130.49L168.82 130.1L166.23 129.73L163.63 129.41L161.02 129.12L158.41 128.86L155.79 128.65L153.17 128.47L150.55 128.32L147.92 128.21L134.92 127.77L132.94 127.69L130.95 127.58L128.97 127.46L126.99 127.32L125.02 127.15L123.04 126.96L121.07 126.75L119.1 126.52L117.14 126.26L115.18 125.99L113.22 125.69L111.27 125.37L109.32 125.03L107.38 124.67L105.44 124.29L103.5 123.89L101.57 123.46L99.65 123.01L97.73 122.55L95.81 122.06L93.9 121.55L92 121.02L90.1 120.46L88.21 119.89L86.32 119.3L84.44 118.68L82.57 118.04L80.7 117.39L78.84 116.71L76.99 116.01L75.15 115.29L73.31 114.56L71.48 113.8L69.66 113.02L67.85 112.21L66.04 111.39L64.24 110.55L62.45 109.69L60.67 108.81L58.9 107.9L52.67 104.69L51.29 103.98L49.89 103.29L48.49 102.62L47.08 101.96L45.66 101.31L44.24 100.69L42.82 100.08L41.38 99.48L39.94 98.9L38.5 98.34L37.04 97.8L35.59 97.27L34.12 96.76L32.66 96.26L31.18 95.78L29.7 95.32L28.22 94.87L26.73 94.44L25.24 94.03L23.74 93.63L22.24 93.25L20.74 92.89L19.23 92.54L17.71 92.21L16.2 91.9L14.68 91.6L13.15 91.32L11.62 91.06L10.09 90.82L8.56 90.59L7.02 90.38L5.48 90.18L3.94 90.01L2.4 89.85L0.85 89.7L-0.7 89.58L-2.25 89.47L-3.81 89.38L-5.36 89.31L-6.92 89.25L-7.98 89.22L-9.11 89.18L-10.24 89.13L-11.37 89.07L-12.5 89L-13.62 88.92L-14.75 88.83L-15.87 88.73L-16.99 88.61L-18.11 88.49L-19.23 88.36L-20.35 88.22L-21.47 88.06L-22.58 87.9L-23.69 87.73L-24.8 87.54L-25.91 87.35L-27.02 87.15L-28.13 86.93L-29.23 86.71L-30.33 86.47L-31.43 86.23L-32.53 85.97L-33.62 85.71L-34.71 85.43L-35.8 85.15L-36.89 84.85L-37.97 84.55L-39.05 84.23L-40.13 83.91L-41.21 83.57L-42.28 83.23L-43.35 82.87L-44.42 82.51L-45.48 82.13L-46.54 81.75L-47.6 81.35L-48.66 80.95L-49.71 80.53L-50.75 80.11L-51.8 79.68L-68.31 72.72L-69.18 72.36L-70.05 72.01L-70.92 71.67L-71.8 71.34L-72.68 71.02L-73.56 70.71L-74.44 70.4L-75.33 70.11L-76.22 69.83L-77.12 69.56L-78.01 69.29L-78.91 69.04L-79.81 68.8L-80.71 68.56L-81.62 68.34L-82.53 68.13L-83.44 67.92L-84.35 67.73L-85.26 67.54L-86.18 67.37L-87.1 67.21L-88.02 67.05L-88.94 66.91L-89.86 66.77L-90.79 66.65L-91.71 66.53L-92.64 66.43L-93.57 66.33L-94.5 66.25L-95.43 66.17L-96.36 66.11L-97.29 66.05L-98.23 66.01L-99.16 65.97L-100.1 65.95L-101.03 65.93L-101.97 65.93L-102.9 65.93L-103.84 65.95L-104.78 65.97L-133.12 66.91L-125.1 58.57L-100.85 55.79L-99.86 55.68L-98.88 55.58L-97.89 55.48L-96.91 55.39L-95.92 55.3L-94.93 55.22L-93.95 55.15L-92.96 55.08L-91.97 55.02L-90.98 54.96L-90 54.91L-89.01 54.86L-88.02 54.82L-87.03 54.79L-86.04 54.76L-85.06 54.74L-84.07 54.72L-83.08 54.71L-82.09 54.7L-81.1 54.7L-80.11 54.71L-79.12 54.72L-78.13 54.74L-77.15 54.77L-76.16 54.8L-75.17 54.83L-74.18 54.87L-73.19 54.92L-72.21 54.97L-71.22 55.03L-70.23 55.1L-69.24 55.17L-68.26 55.24L-67.27 55.33L-66.29 55.41L-65.3 55.51L-64.32 55.61L-63.33 55.71L-62.35 55.83L-61.36 55.94L-50.09 57.32L-49.1 57.44L-48.12 57.55L-47.13 57.65L-46.14 57.75L-45.15 57.84L-44.17 57.92L-43.18 58L-42.19 58.07L-41.2 58.14L-40.21 58.2L-39.22 58.25L-38.23 58.29L-37.24 58.33L-36.25 58.36L-35.26 58.39L-34.27 58.41L-33.28 58.42L-32.29 58.42L-31.3 58.42L-30.31 58.42L-29.32 58.4L-28.33 58.38L-27.34 58.35L-26.35 58.32L-25.36 58.28L-24.37 58.23L-23.38 58.18L-22.39 58.12L-21.4 58.06L-20.41 57.98L-19.43 57.9L-18.44 57.82L-17.45 57.72L-16.47 57.63L-15.48 57.52L-14.49 57.41L-13.51 57.29L-12.53 57.16L-11.54 57.03L-10.56 56.89L13.13 53.48L14.04 53.36L14.94 53.24L15.85 53.14L16.75 53.05L17.66 52.98L18.57 52.91L19.47 52.86L20.38 52.81L21.29 52.78L22.19 52.76L23.1 52.75L24.01 52.76L24.91 52.77Z" id="d2SQmrbHfR"/></defs><g><g><g><use xlink:href="#d2SQmrbHfR" opacity="1" fill="#ffcd5c" fill-opacity="1"/></g></g></g></svg>