<?xml version="1.0" encoding="UTF-8" standalone="no"?>
<!DOCTYPE svg PUBLIC "-//W3C//DTD SVG 1.1//EN" "http://www.w3.org/Graphics/SVG/1.1/DTD/svg11.dtd">
<svg version="1.1" xmlns="http://www.w3.org/2000/svg" xmlns:xlink="http://www.w3.org/1999/xlink" preserveAspectRatio="xMidYMid meet" viewBox="0 0 296 275" width="296" height="275"><defs><path d="M15.13 54.11C16.6 54.65 18.17 54.85 19.73 54.7C22.38 54.46 22.24 54.47 23.46 54.36C29.64 53.79 35.84 55.29 41.08 58.62C44.27 60.65 39.46 57.59 41.08 58.62C51.34 65.16 63.65 67.68 75.66 65.7C78.54 65.23 72.02 66.3 75.77 65.68C85.01 64.16 94.5 65.87 102.62 70.53C103.13 70.83 104.41 71.56 106.46 72.73L107.16 55.98C101.22 54.91 97.5 54.25 96.01 53.98C89.03 52.73 81.85 53.05 75 54.9C71.62 55.82 77.08 54.34 75 54.9C64.07 57.87 52.46 57.03 42.07 52.52C40.04 51.64 42.57 52.74 38.69 51.05C34.3 49.15 29.42 48.71 24.76 49.78C23.21 50.14 22.41 50.33 20.03 50.88C18.06 51.34 16.01 51.3 14.06 50.76C12.81 50.42 12.71 50.39 11.64 50.1C9.13 49.41 6.5 49.35 3.97 49.93C3.21 50.1 1.33 50.53 -1.69 51.22L-1.56 51.98C1.26 51.81 3.03 51.7 3.73 51.66C6.36 51.5 8.98 51.88 11.45 52.78C12.64 53.21 13.65 53.57 15.13 54.11Z" id="blys0dAMh"></path><path d="M125.91 134.23C123.65 134.57 121.66 135.92 120.51 137.9C119.89 138.94 120.41 138.07 119.92 138.89C118.38 141.54 118.26 144.79 119.63 147.54C120.11 148.5 119.19 146.65 119.63 147.54C121.09 150.48 124.1 152.34 127.39 152.34C128.6 152.34 126.87 152.34 128.09 152.34C131.32 152.34 134.22 150.34 135.38 147.32C135.71 146.46 134.99 148.32 135.38 147.32C136.44 144.55 136.41 141.49 135.3 138.74C135.15 138.36 135.91 140.26 135.64 139.57C134.92 137.8 134.68 135.87 134.94 133.98C135.03 133.32 135.25 131.67 135.61 129.03C134.58 129.91 133.93 130.46 133.67 130.68C131.47 132.56 128.78 133.79 125.91 134.23C125.2 134.34 126.79 134.09 125.91 134.23Z" id="d52Bf3WouD"></path><path d="M93.26 165.76C98 166.21 102.34 168.6 105.26 172.37C106.72 174.26 104.34 171.19 105.26 172.37C109.48 177.82 109.15 185.53 104.47 190.6C102.88 192.32 106.09 188.84 104.47 190.6C99.4 196.1 92.29 199.29 84.8 199.42C83.24 199.45 87.15 199.38 84.8 199.42C79.98 199.5 75.48 196.98 73.05 192.81C71.94 190.91 73.84 194.16 73.05 192.81C69.64 186.97 69.78 179.71 73.42 174.02C74.23 172.75 72.24 175.87 73.42 174.02C75.99 170 76.75 165.08 75.51 160.48C75.22 159.39 74.49 156.68 73.32 152.34C75.15 154.68 76.29 156.13 76.75 156.72C80.78 161.87 86.75 165.13 93.26 165.76C94.74 165.9 91.22 165.56 93.26 165.76Z" id="c4BgeQNUMW"></path><path d="M99.47 51.65C90.86 57.82 87.28 68.89 90.66 78.93C91.57 81.61 89.53 75.55 90.66 78.93C93.43 87.15 100.6 93.1 109.18 94.32C112.94 94.86 110.23 94.47 113.99 95.01C122.93 96.28 132 93.84 139.1 88.25C141.6 86.28 136.55 90.25 138.7 88.57C146.58 82.36 150.16 72.14 147.86 62.37C147.38 60.31 148.87 66.67 148.18 63.74C146.48 56.46 141.19 50.53 134.15 48.01C131.84 47.18 132.82 47.53 129.67 46.4C125.12 44.77 121.39 41.43 119.28 37.09C118.09 34.66 115.13 28.6 110.4 18.9C110.12 26.05 109.95 30.53 109.88 32.32C109.59 40.02 105.74 47.16 99.47 51.65C96.57 53.72 101.46 50.23 99.47 51.65Z" id="b1uCc1QJxw"></path><path d="M154.92 93.16C156.97 95.46 159.49 97.28 162.32 98.49C167.14 100.56 166.88 100.44 169.1 101.39C180.33 106.21 189.65 114.62 195.58 125.31C199.18 131.81 193.75 122.01 195.58 125.31C207.21 146.29 225.99 162.39 248.5 170.7C253.78 172.64 244.35 169.17 252.04 172C266.99 177.52 280.09 187.12 289.85 199.73C290.97 201.17 293.77 204.79 298.25 210.57L368.68 256.2L322.24 189.45C309.84 179.71 302.1 173.63 299 171.2C287.99 162.55 275.33 156.25 261.8 152.68C254.28 150.7 262.48 152.86 257.53 151.56C235.93 145.86 216.79 133.26 203.02 115.68C200.33 112.25 203.68 116.53 198.54 109.97C192.74 102.56 184.71 97.21 175.64 94.7C172.63 93.87 171.07 93.44 166.43 92.16C162.59 91.1 159.08 89.11 156.21 86.35C154.37 84.59 154.23 84.45 152.64 82.93C148.95 79.39 144.45 76.82 139.53 75.45C138.07 75.03 134.4 74.01 128.54 72.37L128.05 73.79C133.09 76.15 136.25 77.63 137.51 78.22C142.19 80.41 146.38 83.53 149.81 87.4C151.45 89.25 152.86 90.83 154.92 93.16Z" id="csZF1NtH7"></path><path d="M159.64 85.39C161.98 87.38 164.74 88.82 167.71 89.62C172.78 90.98 172.5 90.91 174.83 91.53C186.64 94.71 197.05 101.71 204.43 111.45C208.93 117.38 202.16 108.45 204.43 111.45C218.9 130.53 239.9 143.6 263.4 148.16C269.05 149.25 256.29 146.78 263.63 148.2C281.89 151.74 298.73 160.5 312.11 173.43C313.6 174.88 317.35 178.5 323.35 184.3L328.2 151.76C317.95 145.73 311.55 141.96 308.99 140.45C296.95 133.36 283.48 129.03 269.57 127.78C262.71 127.16 273.8 128.16 269.57 127.78C247.38 125.78 226.52 116.29 210.43 100.87C207.29 97.86 211.22 101.62 205.2 95.85C198.4 89.34 189.7 85.18 180.36 83.99C177.26 83.59 175.66 83.38 170.89 82.77C166.94 82.27 163.18 80.79 159.94 78.47C157.88 76.99 157.72 76.87 155.93 75.59C151.78 72.61 146.96 70.7 141.89 70.04C140.38 69.84 136.61 69.34 130.57 68.55L130.29 70.03C135.61 71.65 138.94 72.66 140.28 73.07C145.22 74.57 149.81 77.07 153.76 80.41C155.65 82.01 157.26 83.38 159.64 85.39Z" id="b2NwS5kchC"></path><path d="M149.84 101.57C151.54 104.13 153.79 106.29 156.41 107.89C160.9 110.61 160.66 110.46 162.71 111.72C173.16 118.06 181.2 127.7 185.56 139.12C188.22 146.07 184.22 135.6 185.56 139.12C194.11 161.49 210.62 179.91 231.91 190.85C237.02 193.48 225.46 187.54 232.12 190.96C248.62 199.44 262.14 212.77 270.85 229.15C274.04 235.14 278.44 241.04 284.06 246.86C296.98 260.25 313.95 272.72 334.97 284.29L365.69 260.49C348.03 255.4 330.5 245.88 313.11 231.94C300.89 222.15 288.9 210.44 277.15 196.82C268.05 186.27 256.51 178.1 243.53 173.02C237.12 170.5 247.49 174.56 243.53 173.02C222.78 164.89 205.42 149.94 194.29 130.64C192.11 126.87 194.83 131.57 190.66 124.35C185.96 116.2 178.77 109.77 170.14 106.02C167.27 104.77 165.79 104.12 161.38 102.2C157.73 100.61 154.53 98.14 152.08 95.01C150.51 93.01 150.38 92.85 149.02 91.12C145.87 87.1 141.78 83.92 137.1 81.86C135.71 81.25 132.23 79.72 126.65 77.27L125.96 78.61C130.63 81.66 133.54 83.56 134.71 84.32C139.03 87.15 142.74 90.83 145.59 95.14C146.96 97.21 148.13 98.97 149.84 101.57Z" id="cKkWDY7P7"></path><path d="M276.15 46.07C278.45 41.85 278.9 36.85 277.37 32.28C276.71 30.32 277.81 33.62 277.33 32.16C275.29 26.08 270.38 21.4 264.21 19.66C262.05 19.05 266.18 20.22 264.21 19.66C257.6 17.8 250.51 19.85 245.91 24.94C244.22 26.81 246.64 24.13 244.94 26.01C240.42 31.02 239.45 38.29 242.5 44.31C243.38 46.02 241.49 42.31 242.5 44.31C245.3 49.82 250.09 54.07 255.89 56.2C256.68 56.49 252.67 55.02 254.12 55.55C257.86 56.92 261.18 59.25 263.74 62.29C264.64 63.36 266.87 66.01 270.45 70.26C270.54 67.43 270.59 65.66 270.61 64.95C270.79 58.88 272.41 52.93 275.32 47.59C276.21 45.96 275.1 48 276.15 46.07Z" id="a51lPKI3"></path><path d="M246.49 92.38C245.25 91.72 244.37 90.54 244.11 89.16C243.97 88.42 244.09 89.04 243.98 88.46C243.62 86.64 244.29 84.76 245.73 83.58C246.23 83.16 245.26 83.96 245.73 83.58C247.27 82.3 249.42 82.05 251.21 82.94C251.87 83.26 250.89 82.78 251.55 83.11C253.37 84.01 254.56 85.83 254.64 87.86C254.65 88.2 254.57 86.31 254.59 86.74C254.67 88.56 254.04 90.33 252.84 91.69C252.67 91.88 253.5 90.93 253.2 91.27C252.43 92.15 251.9 93.22 251.66 94.37C251.58 94.77 251.37 95.77 251.04 97.37C250.62 96.65 250.36 96.2 250.25 96.02C249.36 94.48 248.06 93.22 246.49 92.38C246.1 92.17 246.97 92.64 246.49 92.38Z" id="axo8TMNG3"></path></defs><g><g><g><use xlink:href="#blys0dAMh" opacity="1" fill="#ffcd5c" fill-opacity="1"></use></g><g><use xlink:href="#d52Bf3WouD" opacity="1" fill="#bfd8ff" fill-opacity="1"></use></g><g><use xlink:href="#c4BgeQNUMW" opacity="1" fill="#bfd8ff" fill-opacity="1"></use></g><g><use xlink:href="#b1uCc1QJxw" opacity="1" fill="#5d89ff" fill-opacity="1"></use></g><g><use xlink:href="#csZF1NtH7" opacity="1" fill="#ffde95" fill-opacity="1"></use></g><g><use xlink:href="#b2NwS5kchC" opacity="1" fill="#ffde95" fill-opacity="1"></use></g><g><use xlink:href="#cKkWDY7P7" opacity="1" fill="#ffde95" fill-opacity="1"></use></g><g><use xlink:href="#a51lPKI3" opacity="1" fill="#bfd8ff" fill-opacity="1"></use></g><g><use xlink:href="#axo8TMNG3" opacity="1" fill="#bfd8ff" fill-opacity="1"></use></g></g></g></svg>