<?xml version="1.0" encoding="UTF-8" standalone="no"?>
<!DOCTYPE svg PUBLIC "-//W3C//DTD SVG 1.1//EN" "http://www.w3.org/Graphics/SVG/1.1/DTD/svg11.dtd">
<svg version="1.1" xmlns="http://www.w3.org/2000/svg" xmlns:xlink="http://www.w3.org/1999/xlink" preserveAspectRatio="xMidYMid meet" viewBox="0 0 296 230" width="296" height="230"><defs><path d="M-68.76 105.88C21.52 124.87 77.95 136.75 100.52 141.49C132.61 148.25 165.4 151.09 198.17 149.96C223.72 149.07 242.11 148.5 253.32 148.23C303.66 147.02 275.9 153.07 203.32 169.47C154.94 180.4 191.23 185.95 312.19 186.13L309.77 197.15C265.33 196.8 217.84 193.12 167.3 186.13C91.5 175.65 217.57 164.09 253.32 155.49C269.3 151.64 245.45 151.13 181.78 153.94C158.44 154.96 135.06 152.83 112.29 147.58C88.15 142.02 27.8 128.12 -68.76 105.88Z" id="acQuspkgx"></path><path d="M169.1 -4.18L173.55 141.61C181.08 142.83 225.61 142.46 307.16 140.49C429.47 137.53 301.24 153.39 246.67 167.64C210.29 177.14 236.1 175.08 324.09 161.46L325.17 173.28C314.06 177.76 286.37 180 242.1 180C175.7 180 193.18 176.51 270.06 157.15C321.31 144.25 286.82 140.62 166.56 146.27L162.54 -1.74L169.1 -4.18Z" id="cecnYHtqJ"></path><path d="M-6.47 138.27C36.12 154.89 81.54 163.07 127.26 162.35C128.37 162.33 113.42 162.57 127.26 162.35C127.26 162.35 138.32 161.9 138.32 161.9C200.7 157.89 185.18 161.26 91.76 172C-15.76 184.37 56.46 199.87 308.43 218.51L311.12 202.92C259.1 200.86 216 197.45 181.82 192.7C73.48 177.65 128.05 170.93 209.51 161.25C260.55 155.18 241.67 153.3 132.8 157.91C23.92 162.53 -16.3 125.99 -55.04 119.55C-80.57 115.31 -69.74 119.47 -22.54 132.05C-22.54 132.05 -21.78 132.3 -21.78 132.3C-5.82 138.52 -9.61 137.05 -6.47 138.27Z" id="c1TwBU8bK7"></path><path d="M-4.69 78.49C0.7 77.21 4.07 76.42 5.42 76.1C13.36 74.21 20.12 69 23.96 61.8C25.54 58.84 24.86 60.11 26.6 56.85C29.89 50.68 35.97 46.49 42.91 45.61C47.77 45 40.7 45.89 42.91 45.61C58.49 43.64 72.73 35.77 82.68 23.62C84.82 21 80.75 25.97 84.14 21.83C90.14 14.5 98.44 9.4 107.7 7.36C110.68 6.7 104.84 7.99 107.7 7.36C117.55 5.19 126.84 1 134.99 -4.94C135.22 -5.11 135.8 -5.53 136.72 -6.2L103.28 -3.64C99.55 -3.6 97.22 -3.58 96.29 -3.57C85.6 -3.46 75.86 2.63 71.07 12.2C69.43 15.46 72.63 9.08 71.07 12.2C65.87 22.59 56.49 30.28 45.27 33.35C40.14 34.75 38.82 35.11 32.81 36.75C24.61 38.99 18.15 45.31 15.73 53.46C15.14 55.42 16.5 50.84 15.73 53.46C13.89 59.66 9.35 64.69 3.37 67.15C2.58 67.48 0.59 68.3 -2.58 69.61L-4.69 78.49Z" id="iFd1yqFFP"></path></defs><g><g><g><use xlink:href="#acQuspkgx" opacity="1" fill="#bfd8ff" fill-opacity="1"></use></g><g><use xlink:href="#cecnYHtqJ" opacity="1" fill="#ffcd5c" fill-opacity="1"></use></g><g><use xlink:href="#c1TwBU8bK7" opacity="1" fill="#5d89ff" fill-opacity="1"></use></g><g><use xlink:href="#iFd1yqFFP" opacity="1" fill="#ffde95" fill-opacity="1"></use></g></g></g></svg>