<?xml version="1.0" encoding="UTF-8" standalone="no"?>
<!DOCTYPE svg PUBLIC "-//W3C//DTD SVG 1.1//EN" "http://www.w3.org/Graphics/SVG/1.1/DTD/svg11.dtd">
<svg version="1.1" xmlns="http://www.w3.org/2000/svg" xmlns:xlink="http://www.w3.org/1999/xlink" preserveAspectRatio="xMidYMid meet" viewBox="0 0 296 210" width="296" height="210"><defs><path d="M-18.83 45.17C2.66 48.91 16.88 69.05 63.67 73.82C110.46 78.58 126.75 64.25 192.2 72.12C257.65 80 279.14 98.9 325.47 105.32C356.36 109.59 365.33 109.59 352.38 105.32L347.08 128.7C383.06 134.49 376.31 134.35 326.81 128.28C252.58 119.16 223.66 96.02 179.24 90.02C134.81 84.03 96.92 95.12 55.74 89.73C28.29 86.14 7.69 77.67 -6.04 64.3C-28.89 49.05 -33.15 42.67 -18.83 45.17Z" id="a6g02r8gf"></path><path d="M47.42 87.08C47.42 91.3 44 94.73 39.77 94.73C35.55 94.73 32.12 91.3 32.12 87.08C32.12 82.86 35.55 79.43 39.77 79.43C44 79.43 47.42 82.86 47.42 87.08Z" id="ajkZD8ncG"></path><path d="M85.49 101.1C85.49 102.4 84.43 103.46 83.12 103.46C81.82 103.46 80.76 102.4 80.76 101.1C80.76 99.79 81.82 98.73 83.12 98.73C84.43 98.73 85.49 99.79 85.49 101.1Z" id="aFC2HijRt"></path><path d="M53.68 95.95C53.68 96.74 53.04 97.37 52.26 97.37C51.47 97.37 50.84 96.74 50.84 95.95C50.84 95.17 51.47 94.53 52.26 94.53C53.04 94.53 53.68 95.17 53.68 95.95Z" id="b2iD6QBOqf"></path><path d="M264.68 190.49C264.68 191.27 264.04 191.91 263.26 191.91C262.47 191.91 261.84 191.27 261.84 190.49C261.84 189.7 262.47 189.07 263.26 189.07C264.04 189.07 264.68 189.7 264.68 190.49Z" id="a1ftpgGOMW"></path><path d="M80.76 92.39C80.76 94.36 79.16 95.95 77.19 95.95C75.23 95.95 73.63 94.36 73.63 92.39C73.63 90.42 75.23 88.83 77.19 88.83C79.16 88.83 80.76 90.42 80.76 92.39Z" id="b1KoOqI8hz"></path><path d="M209.5 182.01C209.5 184.63 207.38 186.75 204.77 186.75C202.16 186.75 200.04 184.63 200.04 182.01C200.04 179.4 202.16 177.28 204.77 177.28C207.38 177.28 209.5 179.4 209.5 182.01Z" id="f4S5hy484V"></path><path d="M-16.76 97.22L309.24 195.99L311.69 190.57L-16.95 92.39L-16.76 97.22Z" id="d1VReBHMIA"></path></defs><g><g><g><use xlink:href="#a6g02r8gf" opacity="1" fill="#ffde95" fill-opacity="1"></use></g><g><use xlink:href="#ajkZD8ncG" opacity="1" fill="#ffcd5c" fill-opacity="1"></use></g><g><use xlink:href="#aFC2HijRt" opacity="1" fill="#31e176" fill-opacity="1"></use></g><g><use xlink:href="#b2iD6QBOqf" opacity="1" fill="#ff0043" fill-opacity="1"></use></g><g><use xlink:href="#a1ftpgGOMW" opacity="1" fill="#bd42ff" fill-opacity="1"></use></g><g><use xlink:href="#b1KoOqI8hz" opacity="1" fill="#5d89ff" fill-opacity="1"></use></g><g><use xlink:href="#f4S5hy484V" opacity="1" fill="#ff892a" fill-opacity="1"></use></g><g><use xlink:href="#d1VReBHMIA" opacity="1" fill="#b6b1c5" fill-opacity="1"></use></g></g></g></svg>