<?xml version="1.0" encoding="UTF-8" standalone="no"?>
<!DOCTYPE svg PUBLIC "-//W3C//DTD SVG 1.1//EN" "http://www.w3.org/Graphics/SVG/1.1/DTD/svg11.dtd">
<svg version="1.1" xmlns="http://www.w3.org/2000/svg" xmlns:xlink="http://www.w3.org/1999/xlink" preserveAspectRatio="xMidYMid meet" viewBox="0 0 296 210" width="296" height="210"><defs><path d="M-84.68 78.95C27.95 109.4 69.66 60.3 119.58 69.05C169.51 77.79 178.51 142.84 238.07 156.34C297.63 169.85 321.24 148.31 356.69 150.13C380.32 151.34 386.99 155.66 376.69 163.1L383.15 147.25C381.21 140.44 372.61 134.72 357.32 130.09C334.4 123.14 284.1 144.92 242.51 128.83C200.91 112.75 199.49 61.1 133.54 34.87C67.59 8.63 36.86 46.91 -24.53 39.92C-65.46 35.26 -94.62 24.26 -112.02 6.91L-140.94 60.03C-178.52 52.35 -159.76 58.66 -84.68 78.95Z" id="b4sEXEeFR"></path><path d="M11.13 106.22L33.96 129.59L47.3 99.89L38.35 89.56L23.34 58.16L19.34 89.71L11.13 106.22Z" id="a1xkUsDpTl"></path><path d="M32.38 122.24L21.19 107.65L28.83 88.02L40.07 105L32.38 122.24ZM31.19 110.7L34.48 104.59L27.03 105.08L31.19 110.7Z" id="c2YuRUdYai"></path><path d="" id="bT4R2UlgA"></path><path d="M171.73 107.9L186.02 113.28L189.83 127.9L195.54 113.28L212.69 107.9L195.54 103.56L189.83 84.1L186.02 103.56L171.73 107.9Z" id="cl1jeGCVQ"></path><path d="M194.45 108.91L190.21 113.94L186.51 108.91L190.21 103.56L194.45 108.91Z" id="e1dL3QJqJa"></path><path d="M48.4 43.51L11.13 49.8L49.53 62.6L58.88 102.83L74.29 60.79L120.53 50.7L74.29 42.65L62.4 -25.47L48.4 43.51Z" id="e5eDPSI4Q9"></path><path d="M62.95 68.37L49.25 51.01L60.68 31.57L73.87 49.49L62.95 68.37ZM61.89 42.64L61.85 42.64L61.83 42.66L61.8 42.67L61.77 42.7L55.4 48.47L56.44 50.05L60.86 46.27L60.86 59.31L63.05 59.31L62.63 46L66.93 50.05L68.29 48.79L62.12 42.7L62.1 42.68L62.07 42.66L62.04 42.65L62.01 42.64L61.98 42.63L61.95 42.63L61.92 42.63L61.89 42.64ZM61.03 38.11L60.76 38.57L60.68 39.11L60.81 39.64L61.1 40.07L61.53 40.35L62.05 40.44L62.55 40.31L62.95 40L63.22 39.55L63.3 39L63.17 38.47L62.87 38.04L62.45 37.76L61.93 37.67L61.43 37.8L61.03 38.11Z" id="a57XPhZpy"></path><path d="M306.88 97.72L-7.67 180.56L-10.88 170.89L305.59 95.46L306.88 97.72Z" id="l28tpxKPd"></path><path d="" id="b3HeppzkI"></path><path d="M129.71 180.56L125.57 168.64L132.9 159.4L137.33 169.96L129.71 180.56Z" id="a1rfkmSqG"></path><path d="M251.49 69.59L249.06 73.23L245.01 70.6L246.43 63.52L251.49 69.59Z" id="h5nOIxVG"></path><path d="M264.43 58.66L261.3 62.06L259.31 57.41L262.33 52.73L264.43 58.66Z" id="bKSYBFmfB"></path><path d="M258.17 87.2L259.99 78.7L256.14 72.02L253.91 80.12L258.17 87.2Z" id="b1dkB5lo7"></path></defs><g><g><g><use xlink:href="#b4sEXEeFR" opacity="1" fill="#ffcd5c" fill-opacity="1"></use></g><g></g><g><g><use xlink:href="#a1xkUsDpTl" opacity="1" fill="#ffffff" fill-opacity="1"></use></g><g><use xlink:href="#c2YuRUdYai" opacity="1" fill="#ffdcb0" fill-opacity="1"></use></g></g><g><g><use xlink:href="#bT4R2UlgA" opacity="1" fill-opacity="0" stroke="#000000" stroke-width="1" stroke-opacity="1"></use></g></g><g><g><use xlink:href="#cl1jeGCVQ" opacity="1" fill="#ffffff" fill-opacity="1"></use></g><g><use xlink:href="#e1dL3QJqJa" opacity="1" fill="#ffdcb0" fill-opacity="1"></use></g></g><g><g><use xlink:href="#e5eDPSI4Q9" opacity="1" fill="#ffffff" fill-opacity="1"></use></g><g><use xlink:href="#a57XPhZpy" opacity="1" fill="#ffdcb0" fill-opacity="1"></use></g></g><g><use xlink:href="#l28tpxKPd" opacity="1" fill="#a735ff" fill-opacity="1"></use></g><g><g><use xlink:href="#b3HeppzkI" opacity="1" fill-opacity="0" stroke="#000000" stroke-width="1" stroke-opacity="1"></use></g></g><g><use xlink:href="#a1rfkmSqG" opacity="1" fill="#ffdcb0" fill-opacity="1"></use></g><g><use xlink:href="#h5nOIxVG" opacity="1" fill="#ffdcb0" fill-opacity="1"></use></g><g><use xlink:href="#bKSYBFmfB" opacity="1" fill="#ffdcb0" fill-opacity="1"></use></g><g><use xlink:href="#b1dkB5lo7" opacity="1" fill="#ffdcb0" fill-opacity="1"></use></g></g></g></svg>