<?xml version="1.0" encoding="UTF-8" standalone="no"?>
<!DOCTYPE svg PUBLIC "-//W3C//DTD SVG 1.1//EN" "http://www.w3.org/Graphics/SVG/1.1/DTD/svg11.dtd">
<svg version="1.1" xmlns="http://www.w3.org/2000/svg" xmlns:xlink="http://www.w3.org/1999/xlink" preserveAspectRatio="xMidYMid meet" viewBox="0 0 296 210" width="296" height="210"><defs><path d="M209.06 21.19L212.39 21.57L215.68 22.1L218.93 22.79L222.13 23.64L225.26 24.65L228.3 25.83L231.26 27.17L234.11 28.68L236.85 30.37L239.46 32.24L241.94 34.28L244.26 36.51L246.43 38.92L248.42 41.52L250.23 44.31L251.84 47.3L253.25 50.48L254.43 53.87L255.39 57.45L256.1 61.25L256.56 65.25L256.75 67.96L256.88 70.61L256.96 73.2L256.98 75.73L256.95 78.21L256.85 80.62L256.71 82.98L256.5 85.28L256.24 87.52L255.93 89.7L255.55 91.83L255.12 93.89L254.64 95.9L254.1 97.85L253.5 99.73L252.84 101.56L252.13 103.34L251.37 105.05L250.54 106.7L249.66 108.3L248.73 109.84L247.74 111.32L246.69 112.74L245.58 114.1L244.42 115.4L243.2 116.65L241.93 117.83L240.6 118.96L239.21 120.03L237.77 121.04L236.27 121.99L234.72 122.89L233.11 123.72L231.44 124.5L229.71 125.22L227.93 125.87L226.1 126.48L224.2 127.02L222.25 127.5L220.25 127.93L219.35 124.1L221.23 123.81L223.05 123.46L224.81 123.05L226.51 122.58L228.15 122.05L229.74 121.47L231.27 120.82L232.75 120.11L234.16 119.34L235.52 118.52L236.82 117.63L238.07 116.69L239.26 115.68L240.39 114.62L241.46 113.49L242.48 112.31L243.43 111.06L244.34 109.76L245.18 108.4L245.97 106.97L246.7 105.49L247.37 103.95L247.98 102.35L248.54 100.69L249.04 98.97L249.49 97.19L249.87 95.35L250.2 93.45L250.47 91.49L250.69 89.47L250.85 87.39L250.95 85.25L250.99 83.06L250.97 80.8L250.9 78.48L250.77 76.11L250.59 73.67L250.34 71.18L250.04 68.62L249.69 66.01L248.99 62.17L248.05 58.58L246.89 55.24L245.52 52.14L243.96 49.27L242.2 46.63L240.27 44.21L238.17 42.01L235.93 40.01L233.54 38.22L231.02 36.62L228.39 35.21L226.39 34.32L213.37 63.04L216.43 66.14L217.12 66.87L217.76 67.63L218.34 68.42L218.87 69.23L219.34 70.05L219.77 70.9L220.14 71.76L220.47 72.63L220.74 73.52L220.96 74.41L221.13 75.31L221.25 76.22L221.33 77.12L221.35 78.03L221.33 78.94L221.26 79.85L221.14 80.75L220.97 81.64L220.76 82.52L220.5 83.39L220.2 84.24L219.85 85.08L219.45 85.91L219.01 86.71L218.53 87.49L218 88.24L217.43 88.97L216.81 89.67L216.15 90.33L215.45 90.97L214.71 91.57L213.93 92.13L213.1 92.66L212.23 93.14L211.33 93.58L210.4 93.97L209.46 94.31L208.52 94.6L207.58 94.83L206.63 95.02L205.68 95.17L204.73 95.26L203.78 95.31L202.84 95.31L201.9 95.26L200.97 95.17L200.04 95.04L199.13 94.86L198.22 94.64L197.33 94.38L196.45 94.08L195.59 93.73L194.75 93.35L193.92 92.93L193.12 92.47L192.33 91.97L191.57 91.43L190.84 90.86L190.13 90.25L189.45 89.61L188.8 88.93L188.18 88.22L187.59 87.47L187.04 86.7L186.52 85.89L186.04 85.05L185.59 84.18L185.19 83.28L184.83 82.35L184.51 81.4L184.27 80.53L184.09 79.66L183.95 78.8L183.86 77.93L183.82 77.08L183.82 76.23L183.87 75.38L183.97 74.55L184.11 73.73L184.29 72.92L184.51 72.12L184.78 71.34L185.08 70.58L185.42 69.83L185.8 69.11L186.21 68.4L186.66 67.72L187.14 67.06L187.66 66.43L188.21 65.82L188.79 65.24L189.4 64.69L190.03 64.17L190.7 63.69L191.39 63.24L192.11 62.82L192.85 62.44L193.62 62.1L194.4 61.8L195.21 61.54L196.04 61.32L196.89 61.14L197.76 61.02L198.64 60.93L199.54 60.9L205.58 60.84L220.1 32.11L219.91 32.05L216.93 31.34L213.89 30.78L210.8 30.38L207.68 30.12L204.53 30L201.38 30.01L198.22 30.14L195.08 30.4L191.97 30.77L188.89 31.25L185.85 31.83L182.88 32.51L179.98 33.27L177.16 34.12L174.44 35.04L171.82 36.04L169.32 37.09L166.95 38.2L164.73 39.37L162.65 40.58L160.75 41.82L159.02 43.1L157.48 44.41L156.14 45.73L155.01 47.07L154.35 47.98L153.72 48.92L153.13 49.89L152.57 50.9L152.05 51.93L151.55 53L151.1 54.1L150.67 55.23L150.28 56.39L149.93 57.58L149.61 58.81L149.32 60.06L149.06 61.35L148.84 62.67L148.66 64.02L148.51 65.41L148.39 66.82L148.3 68.26L148.25 69.74L148.23 71.25L148.25 72.79L148.3 74.36L148.39 75.96L148.51 77.6L148.66 79.26L148.84 80.96L149.06 82.69L149.32 84.45L149.61 86.24L149.93 88.06L150.28 89.92L150.67 91.8L151.1 93.72L151.55 95.67L152.05 97.65L152.57 99.66L153.13 101.71L153.72 103.78L154.35 105.89L155.01 108.03L152.41 109.33L151.47 107.18L150.58 105.04L149.74 102.93L148.95 100.83L148.21 98.76L147.53 96.71L146.89 94.67L146.31 92.66L145.78 90.67L145.31 88.7L144.88 86.75L144.51 84.82L144.18 82.91L143.91 81.02L143.69 79.15L143.53 77.31L143.41 75.48L143.35 73.67L143.33 71.89L143.37 70.12L143.46 68.38L143.61 66.65L143.8 64.95L144.05 63.27L144.34 61.6L144.69 59.96L145.09 58.34L145.55 56.74L146.05 55.16L146.61 53.6L147.21 52.06L147.87 50.54L148.59 49.04L149.35 47.56L150.16 46.11L151.03 44.67L151.95 43.25L152.92 41.86L153.94 40.48L155.01 39.13L156.76 37.16L158.69 35.29L160.8 33.52L163.08 31.85L165.51 30.28L168.07 28.83L170.77 27.49L173.59 26.26L176.52 25.15L179.54 24.16L182.64 23.3L185.81 22.56L189.05 21.95L192.33 21.48L195.65 21.14L198.99 20.93L202.35 20.87L205.71 20.96L209.06 21.19ZM198.88 65.13L197.61 65.55L196.41 66.12L195.29 66.82L194.27 67.64L193.35 68.58L192.54 69.62L191.86 70.75L191.32 71.96L190.92 73.24L190.68 74.57L190.61 75.96L190.72 77.37L191.02 78.81L191.56 80.36L192.26 81.77L193.11 83.06L194.09 84.21L195.19 85.21L196.39 86.07L197.68 86.78L199.04 87.34L200.45 87.74L201.89 87.97L203.36 88.03L204.84 87.93L206.3 87.64L207.74 87.17L209.13 86.52L210.47 85.67L211.73 84.63L212.76 83.53L213.61 82.35L214.28 81.09L214.77 79.8L215.09 78.46L215.24 77.11L215.22 75.76L215.05 74.43L214.71 73.12L214.23 71.87L213.59 70.68L212.82 69.56L211.9 68.55L210.84 67.64L209.66 66.87L208.34 66.23L206.9 65.76L204.46 65.13L203.01 64.86L201.59 64.77L200.21 64.87L198.88 65.13Z" id="d45nMbs45y"></path><path d="M-2.29 -3.46L-2.29 213.89L303.61 215.73L302.14 154.11C295.6 146.62 290.17 145.35 285.84 150.32C279.35 157.76 281.89 188.66 272.87 183.89C263.84 179.12 234.3 199.56 192.17 199.13C150.04 198.69 112.84 173.94 104.35 182.15C95.86 190.36 93.74 170.53 82.95 168.5C72.15 166.47 56.93 180.58 56.01 176.99C55.09 173.39 94.76 131.88 85.16 112.78C75.57 93.68 33.78 106.51 17.63 100.6C1.49 94.7 53.98 84 50.48 71.82C46.97 59.64 22.8 65.64 32.39 60.38C41.99 55.12 49 46.91 44.57 37.5C40.14 28.09 3.98 28.62 17.63 20.87C31.29 13.12 42.91 3.09 37.19 -4.56C33.38 -9.67 20.22 -9.3 -2.29 -3.46Z" id="dGk0cZzZL"></path><path d="M-0.39 132.35L27.65 119.73C31.86 126.51 38.4 130.72 47.28 132.35C56.16 133.99 67.38 133.05 80.93 129.55C71.12 123.24 62.24 119.03 54.29 116.93C46.35 114.83 39.33 114.83 33.26 116.93L46.58 109.22L43.42 105.01L29.4 112.37C31.68 107.87 32.97 102.03 33.26 94.84C33.55 87.66 32.85 79.13 31.15 69.25C25.66 81.06 22.39 90.64 21.34 98C20.29 105.36 21.46 110.5 24.85 113.42L-1.45 119.73L-0.39 132.35Z" id="bunIZbpiD"></path><path d="M80.93 90.64L57.8 71.01L56.39 96.26L80.93 90.64Z" id="azziwP8IM"></path><path d="M139.73 203.66L142.23 196.16C145.45 196.16 148.95 196.16 152.73 196.16C156.5 196.16 159 194.22 160.23 190.33C158.23 189.22 155.73 188.88 152.73 189.33C149.73 189.77 146.6 191.22 143.33 193.66L146.06 186.33L144.39 185.33L141.56 192.16C141.34 191.05 140.45 189.33 138.89 186.99C137.34 184.66 134.84 182.33 131.39 179.99C131.17 183.1 131.84 185.88 133.39 188.33C134.95 190.77 137.06 192.33 139.73 192.99L135.89 202.83L139.73 203.66Z" id="a11XCYa8gn"></path><path d="M60.55 227.17L80.1 197.28C85.42 199.16 91.61 200.72 98.69 201.95C105.76 203.18 122.2 204.76 148 206.68C134.58 193.66 123.63 186.45 115.16 185.02C106.69 183.6 97.25 185.09 86.83 189.48C88.71 186.6 90.99 183.86 93.69 181.25C96.38 178.63 98.87 176.16 101.16 173.81L95.49 168.54C93.28 171.32 90.89 174.22 88.32 177.23C85.76 180.23 83.02 183.35 80.1 186.58C80.43 174.98 77.88 165.52 72.47 158.2C67.06 150.88 56.15 145.31 39.74 141.49L60.91 177.23L72.9 191.94L54.27 223.11L60.55 227.17Z" id="d4Y2ETtkw"></path><path d="M135.36 155.34L102.69 132.6L104.02 165.75L135.36 155.34Z" id="b3ctgQDoNH"></path><path d="M-8.9 205.73L9.53 218.13L39.36 212.95C42.09 209.36 43.92 204.7 44.83 198.98C46.21 190.41 46.25 189.33 48.03 181.64C49.22 176.52 54.92 168.72 65.13 158.25C51.68 165.28 41.47 168.99 34.5 169.38C24.05 169.97 21.63 166.57 10.32 168.11C2.78 169.14 -3.34 172.73 -8.05 178.88L-8.9 205.73Z" id="a2CZ6Ffdlw"></path><path d="" id="d18ILfDVor"></path><path d="M-5.05 209.54C-1.35 204.29 2.05 199.86 5.15 196.24C8.25 192.62 11.05 189.82 13.55 187.84C12.15 185.51 11.75 183.11 12.35 180.64C12.95 178.17 15.44 175.64 19.8 173.04L21.62 175.64C18.11 177.61 16.35 179.61 16.35 181.64C16.35 183.67 17.09 185.14 18.55 186.04L29.95 178.44L32.55 182.04L22.55 189.44C23.55 191.23 25.43 192.23 28.2 192.44C30.98 192.65 33.49 191.65 35.74 189.44L38.49 192.44C35.9 195.21 32.47 196.47 28.2 196.24C23.94 196.01 20.25 194.74 17.15 192.44C13.39 195.61 10.19 198.61 7.55 201.44C4.92 204.27 3.05 207.41 1.95 210.84L-5.05 209.54Z" id="cHtP85h9L"></path><path d="M247.79 215.99L245.96 198.99C246.46 199.77 249.54 200.24 255.21 200.41C260.88 200.58 265.13 195.83 267.96 186.16C261.79 186.83 257.88 188.49 256.21 191.16C254.54 193.83 251.13 195.58 245.96 196.41L243.96 190.41C242.79 190.41 242.06 190.41 241.77 190.41C241.61 190.41 241.49 190.56 241.53 190.71C241.7 191.47 242.14 193.37 242.83 196.41C240.58 196.08 236.96 194.33 231.96 191.16C226.96 187.99 221.88 187.16 216.71 188.66C219.88 191.33 223.13 194.24 226.46 197.41C229.79 200.58 235.25 201.22 242.83 199.35L244.71 217.21L247.79 215.99Z" id="b2u1dUyjCu"></path><path d="M274.46 188L272.17 181.28C273.6 181.47 275.46 180.86 277.74 179.45C280.03 178.04 281.6 175.41 282.46 171.57C280.08 171.38 277.65 172.05 275.17 173.57C272.7 175.09 271.55 177.19 271.74 179.85L269.46 173.57L267.32 174.43L269.46 179.85C268.68 179.36 267.01 178.97 264.46 178.68C261.9 178.39 258.24 178.65 253.46 179.45C255.46 180.12 257.57 181.06 259.79 182.28C262.01 183.51 265.13 183.17 269.13 181.28L272.79 188.45L274.46 188Z" id="d5PQHfa2l0"></path><path d="M206.21 201.9L207.52 196.07C209.15 195.8 210.64 195.54 212.01 195.27C213.39 195.01 214.67 193.76 215.85 191.52C213.43 191.1 211.64 191.01 210.47 191.23C209.31 191.45 208.22 192.67 207.2 194.89L207.15 189.89L205.02 189.91L205.07 194.53C205.14 195.17 203.87 194.69 201.29 193.1C198.7 191.51 196.64 191.05 195.13 191.74C197.05 193.81 198.88 195.17 200.6 195.82C202.32 196.47 203.7 196.65 204.75 196.35L203.8 201.65L206.21 201.9Z" id="a3pbfQ57mj"></path><path d="M9.95 41.06C15.6 45.36 22.09 47.23 29.4 46.67C19.97 47.5 12.19 49.88 6.08 53.79C-3.1 59.65 -0.71 65.09 -8.9 67.13C-14.36 68.49 -20.28 66.77 -26.67 61.96L-27.8 33.15C-19.45 27.87 -12.35 25.89 -6.5 27.21C2.27 29.18 1.48 34.61 9.95 41.06Z" id="e1Y7CMiQa4"></path><path d="M296.8 200.39C301.13 200.51 302.33 203.62 300.42 209.72C296.2 208.52 293.03 207.56 290.91 206.86C288.8 206.15 287.75 204.44 287.77 201.72C289.46 200.72 292.47 200.28 296.8 200.39Z" id="aHz2qLGLn"></path><path d="M297.37 192.66C298.57 189.6 297.44 186.73 293.97 184.06C292.37 186.06 291.04 188.4 289.97 191.06C288.9 193.73 289.77 195.86 292.57 197.46C294.57 197.33 296.17 195.73 297.37 192.66Z" id="b1Rcm5HFpc"></path><path d="M280.17 208.4C277.37 209.42 273.1 208.58 267.37 205.86C269.64 205.6 272.57 204.33 276.17 202.06C279.77 199.79 283.77 199.46 288.17 201.06C285.64 204.93 282.97 207.38 280.17 208.4Z" id="g1dyYPY901"></path><path d="M289.27 203.66C292.07 201.51 294.98 198.09 292.07 194.1C289.16 190.12 286.35 192.71 283.74 191.83C281.99 191.24 279.75 189.55 277 186.76C279.3 189.57 280.59 192.02 280.87 194.1C281.29 197.24 278.83 198.07 280.12 201.2C281.41 204.32 286.47 205.81 289.27 203.66Z" id="c4HRmx9zAS"></path><path d="" id="a3NGw1CJl"></path><path d="M289.53 201.01L287.45 198.09C288.65 197.15 289.19 196.31 289.08 195.58C288.98 194.84 288.56 194.07 287.82 193.26L287.02 193.91C287.68 194.48 288.01 195.03 288.01 195.58C288.01 196.12 287.68 196.61 287.02 197.04L284.71 194.66L283.88 195.18L285.72 197.69C285.18 198.26 284.56 198.57 283.88 198.62C283.19 198.68 282.72 198.37 282.46 197.69L281.78 198.44C282.12 199.29 282.82 199.68 283.88 199.63C284.93 199.57 285.77 199.23 286.4 198.62L288.68 201.66L289.53 201.01Z" id="btSynIGn7"></path><path d="" id="d1eK5Kd0P8"></path><path d="M56.39 14.09L49.85 29.14L41.42 17.85L56.39 14.09Z" id="b1O1760pRS"></path><path d="M89.38 53.9L82.17 48.26L90.63 44.5L89.38 53.9Z" id="bjiJRDKih"></path><path d="M154.01 177.92L144.59 174.44L146.8 182.94L154.01 177.92Z" id="b38EOxiPXn"></path><path d="M208.87 180.38L198.96 182.1L205.73 187.74L208.87 180.38Z" id="c2JYJDzvom"></path><path d="M116.26 102.88L104.86 99.88L111.06 89.08L116.26 102.88Z" id="f1EgeVKGiv"></path><path d="M141.86 117.08L136.86 117.08L138.46 112.08L141.86 117.08Z" id="d5DKx71kL"></path><path d="M248.13 171.54L229.53 177.41L242.93 186.44L248.13 171.54Z" id="a6Id35Y8d"></path><path d="M266.53 160.78L258.33 164.78L265.93 169.18L266.53 160.78Z" id="a4imUUpP4L"></path><path d="M194.33 157.38L187.13 158.78L192.08 163.04L194.33 157.38Z" id="b2g0jCd1Bs"></path><path d="M271.59 131.24L282.31 118.05L287.5 133.07L271.59 131.24Z" id="i1RsBGurj"></path><path d="M239.39 160.21L233.25 156.52L240.82 153.66L239.39 160.21Z" id="c8C3kCJKi"></path></defs><g><g><g><use xlink:href="#d45nMbs45y" opacity="1" fill="#00ffab" fill-opacity="1"></use></g><g><use xlink:href="#dGk0cZzZL" opacity="1" fill="#bfd8ff" fill-opacity="1"></use></g><g><use xlink:href="#bunIZbpiD" opacity="1" fill="#46af49" fill-opacity="1"></use></g><g><use xlink:href="#azziwP8IM" opacity="1" fill="#00ffab" fill-opacity="1"></use></g><g><use xlink:href="#a11XCYa8gn" opacity="1" fill="#46af49" fill-opacity="1"></use></g><g><use xlink:href="#d4Y2ETtkw" opacity="1" fill="#46af49" fill-opacity="1"></use></g><g><use xlink:href="#b3ctgQDoNH" opacity="1" fill="#00ffab" fill-opacity="1"></use></g><g><use xlink:href="#a2CZ6Ffdlw" opacity="1" fill="#a735ff" fill-opacity="1"></use></g><g><g><use xlink:href="#d18ILfDVor" opacity="1" fill-opacity="0" stroke="#000000" stroke-width="1" stroke-opacity="1"></use></g></g><g><use xlink:href="#cHtP85h9L" opacity="1" fill="#ffffff" fill-opacity="1"></use></g><g><use xlink:href="#b2u1dUyjCu" opacity="1" fill="#46af49" fill-opacity="1"></use></g><g><use xlink:href="#d5PQHfa2l0" opacity="1" fill="#46af49" fill-opacity="1"></use></g><g><use xlink:href="#a3pbfQ57mj" opacity="1" fill="#46af49" fill-opacity="1"></use></g><g><use xlink:href="#e1Y7CMiQa4" opacity="1" fill="#a735ff" fill-opacity="1"></use></g><g><use xlink:href="#aHz2qLGLn" opacity="1" fill="#46af49" fill-opacity="1"></use></g><g><use xlink:href="#b1Rcm5HFpc" opacity="1" fill="#46af49" fill-opacity="1"></use></g><g><use xlink:href="#g1dyYPY901" opacity="1" fill="#46af49" fill-opacity="1"></use></g><g><use xlink:href="#c4HRmx9zAS" opacity="1" fill="#a735ff" fill-opacity="1"></use></g><g><g><use xlink:href="#a3NGw1CJl" opacity="1" fill-opacity="0" stroke="#000000" stroke-width="1" stroke-opacity="1"></use></g></g><g><use xlink:href="#btSynIGn7" opacity="1" fill="#ffffff" fill-opacity="1"></use></g><g><g><use xlink:href="#d1eK5Kd0P8" opacity="1" fill-opacity="0" stroke="#000000" stroke-width="1" stroke-opacity="1"></use></g></g><g><use xlink:href="#b1O1760pRS" opacity="1" fill="#00ffab" fill-opacity="1"></use></g><g><use xlink:href="#bjiJRDKih" opacity="1" fill="#00ffab" fill-opacity="1"></use></g><g><use xlink:href="#b38EOxiPXn" opacity="1" fill="#00ffab" fill-opacity="1"></use></g><g><use xlink:href="#c2JYJDzvom" opacity="1" fill="#00ffab" fill-opacity="1"></use></g><g><use xlink:href="#f1EgeVKGiv" opacity="1" fill="#00ffab" fill-opacity="1"></use></g><g><use xlink:href="#d5DKx71kL" opacity="1" fill="#00ffab" fill-opacity="1"></use></g><g><use xlink:href="#a6Id35Y8d" opacity="1" fill="#00ffab" fill-opacity="1"></use></g><g><use xlink:href="#a4imUUpP4L" opacity="1" fill="#00ffab" fill-opacity="1"></use></g><g><use xlink:href="#b2g0jCd1Bs" opacity="1" fill="#00ffab" fill-opacity="1"></use></g><g><use xlink:href="#i1RsBGurj" opacity="1" fill="#00ffab" fill-opacity="1"></use></g><g><use xlink:href="#c8C3kCJKi" opacity="1" fill="#00ffab" fill-opacity="1"></use></g></g></g></svg>