<?xml version="1.0" encoding="UTF-8" standalone="no"?>
<!DOCTYPE svg PUBLIC "-//W3C//DTD SVG 1.1//EN" "http://www.w3.org/Graphics/SVG/1.1/DTD/svg11.dtd">
<svg version="1.1" xmlns="http://www.w3.org/2000/svg" xmlns:xlink="http://www.w3.org/1999/xlink" preserveAspectRatio="xMidYMid meet" viewBox="100 0 440 440"><defs><path d="" id="cullslnCH"></path><path d="M461.11 428.23C475.53 412.8 484.54 403.15 488.15 399.3C530.58 353.87 527.62 282.51 481.58 240.76C468.49 228.89 474.92 234.72 452.32 214.23C428.95 193.03 413.85 164.22 409.71 132.94C409.14 128.58 407.7 117.7 405.4 100.29C401.92 103.79 399.74 105.97 398.87 106.85C364.4 141.4 318.76 162.55 270.12 166.5C233.46 169.48 260.72 167.27 239.53 168.99C163.21 175.19 114.24 252.96 141.62 324.47C142.33 326.32 144.11 330.96 146.95 338.39" id="f5apvyuAph"></path><path d="M414.47 8.92L414.47 48.92" id="d6AR2SQdZ"></path><path d="M414.47 48.92L380.18 26.63" id="aftN0KUYj"></path><path d="M414.47 47.21L448.18 31.21" id="e1yDIubw7X"></path><path d="M389.32 65.49L414.47 48.92" id="bSsEowXo9"></path><path d="M429.9 67.78L414.47 47.21" id="d5xnypatAv"></path><path d="M273.32 245.49L349.9 194.63" id="e4qc7gmZGK"></path><path d="M389.32 262.06L348.75 194.63L312.75 361.49" id="aCTHZWjnf"></path></defs><g><g><g><g><use xlink:href="#cullslnCH" opacity="1" fill-opacity="0" stroke="#000000" stroke-width="1" stroke-opacity="1"></use></g></g><g><g><use xlink:href="#f5apvyuAph" opacity="1" fill-opacity="0" stroke="#a49c9c" stroke-width="3" stroke-opacity="1"></use></g></g><g><g><use xlink:href="#d6AR2SQdZ" opacity="1" fill-opacity="0" stroke="#f6b557" stroke-width="5" stroke-opacity="1"></use></g></g><g><g><use xlink:href="#aftN0KUYj" opacity="1" fill-opacity="0" stroke="#f6b557" stroke-width="5" stroke-opacity="1"></use></g></g><g><g><use xlink:href="#e1yDIubw7X" opacity="1" fill-opacity="0" stroke="#f6b557" stroke-width="5" stroke-opacity="1"></use></g></g><g><g><use xlink:href="#bSsEowXo9" opacity="1" fill-opacity="0" stroke="#f6b557" stroke-width="5" stroke-opacity="1"></use></g></g><g><g><use xlink:href="#d5xnypatAv" opacity="1" fill-opacity="0" stroke="#f6b557" stroke-width="5" stroke-opacity="1"></use></g></g><g><g><use xlink:href="#e4qc7gmZGK" opacity="1" fill-opacity="0" stroke="#5e6be7" stroke-width="5" stroke-opacity="1"></use></g></g><g><g><use xlink:href="#aCTHZWjnf" opacity="1" fill-opacity="0" stroke="#5e6be7" stroke-width="5" stroke-opacity="1"></use></g></g></g></g></svg>