<?xml version="1.0" encoding="UTF-8" standalone="no"?>
<!DOCTYPE svg PUBLIC "-//W3C//DTD SVG 1.1//EN" "http://www.w3.org/Graphics/SVG/1.1/DTD/svg11.dtd">
<svg version="1.1" xmlns="http://www.w3.org/2000/svg" xmlns:xlink="http://www.w3.org/1999/xlink" preserveAspectRatio="xMidYMid meet" viewBox="0 0 200 140" width="200" height="140"><defs><path d="" id="aBWgbsEZL"></path><path d="M153.42 108.03L168.58 125.45L162.02 131.17L143.92 110.75L143.16 131.17L135.69 131.17L131.17 79.35L138.26 78.16L142.33 101.01L164.06 77.21L171.53 81.1L153.42 108.03ZM101.05 77.68L101.48 77.72L101.92 77.79L102.35 77.87L102.78 77.96L103.21 78.08L103.64 78.21L104.06 78.36L104.46 78.51L105.72 79.03L106.94 79.59L108.12 80.21L109.27 80.87L110.38 81.58L111.45 82.35L112.47 83.15L113.46 84L114.4 84.89L115.3 85.81L116.15 86.78L116.96 87.78L117.72 88.81L118.44 89.88L119.1 90.97L119.72 92.1L120.28 93.25L120.79 94.43L121.25 95.62L121.66 96.84L122.01 98.08L122.31 99.34L122.55 100.61L122.73 101.9L122.85 103.2L122.92 104.51L122.92 105.83L122.86 107.15L122.74 108.48L122.56 109.81L122.31 111.15L122.03 112.47L121.86 113.23L121.66 113.98L121.43 114.72L121.18 115.44L120.9 116.16L120.61 116.86L120.28 117.55L119.94 118.23L119.57 118.89L119.18 119.54L118.76 120.17L118.33 120.79L117.88 121.4L117.4 121.98L116.91 122.55L116.39 123.1L115.86 123.63L115.31 124.15L114.74 124.65L114.15 125.12L113.55 125.58L112.93 126.01L112.3 126.43L111.65 126.82L110.98 127.19L110.3 127.54L109.61 127.86L108.9 128.17L108.18 128.44L107.44 128.7L106.97 128.84L106.62 128.93L106.26 129.01L105.9 129.08L105.53 129.14L105.16 129.2L104.8 129.24L104.43 129.28L104.06 129.31L103.69 129.33L103.33 129.34L102.96 129.34L102.59 129.33L102.22 129.32L101.85 129.3L101.49 129.26L101.12 129.22L100.76 129.17L100.39 129.12L100.03 129.05L99.67 128.97L99.31 128.89L98.95 128.8L98.6 128.7L98.25 128.59L97.89 128.47L97.55 128.35L97.2 128.21L96.86 128.07L96.52 127.92L96.18 127.76L93.12 126.27L92.62 126.02L92.14 125.75L91.66 125.47L91.2 125.18L90.74 124.87L90.3 124.55L89.87 124.21L89.45 123.87L89.04 123.5L88.65 123.13L88.27 122.75L87.9 122.35L87.54 121.95L87.2 121.53L86.87 121.1L86.55 120.66L86.25 120.21L85.96 119.76L85.69 119.29L85.43 118.81L85.18 118.33L84.95 117.84L84.74 117.34L84.54 116.83L84.36 116.32L84.19 115.8L84.04 115.27L83.91 114.74L83.79 114.2L83.69 113.65L83.61 113.1L82.91 107.88L82.81 106.99L82.73 106.1L82.67 105.21L82.64 104.32L82.64 103.43L82.65 102.55L82.7 101.67L82.77 100.78L82.86 99.91L82.97 99.03L83.11 98.17L83.28 97.3L83.47 96.44L83.68 95.59L83.91 94.74L84.17 93.9L84.45 93.07L84.75 92.25L85.08 91.43L85.43 90.63L85.8 89.83L86.19 89.04L86.61 88.26L87.05 87.49L87.51 86.74L87.99 85.99L88.49 85.26L89.02 84.54L89.56 83.84L90.13 83.15L90.72 82.47L91.67 81.4L91.97 81.07L92.29 80.76L92.62 80.45L92.96 80.17L93.3 79.9L93.66 79.64L94.02 79.4L94.39 79.17L94.77 78.96L95.16 78.76L95.56 78.58L95.95 78.41L96.36 78.26L96.77 78.13L97.19 78.01L97.6 77.91L98.03 77.82L98.45 77.75L98.88 77.7L99.31 77.66L99.75 77.64L100.18 77.63L100.61 77.65L101.05 77.68ZM106.97 128.84L106.99 128.84L107.35 128.74L106.7 128.92L106.97 128.84ZM56.89 80.77L57.3 80.82L57.7 80.89L58.1 80.97L58.5 81.07L58.89 81.19L59.28 81.33L59.66 81.48L60.04 81.65L60.41 81.84L60.77 82.04L61.13 82.26L61.48 82.5L61.81 82.75L62.14 83.02L62.93 83.68L63.38 84.09L63.81 84.51L64.21 84.95L64.6 85.4L64.96 85.87L65.29 86.36L65.61 86.86L65.89 87.36L66.16 87.88L66.4 88.42L66.61 88.96L66.8 89.51L66.97 90.06L67.11 90.63L67.22 91.19L67.31 91.77L67.37 92.35L67.4 92.93L67.41 93.51L67.39 94.1L67.35 94.68L67.28 95.27L67.18 95.85L67.05 96.43L66.89 97.01L66.71 97.58L66.5 98.15L65.02 101.84L65.86 102.05L66.45 102.21L67.01 102.41L67.55 102.63L68.08 102.89L68.59 103.17L69.07 103.48L69.54 103.82L69.98 104.18L70.4 104.56L70.79 104.96L71.16 105.39L71.51 105.84L71.83 106.3L72.12 106.78L72.39 107.28L72.63 107.79L72.83 108.32L73.01 108.86L73.16 109.4L73.28 109.96L73.36 110.53L73.42 111.1L73.44 111.68L73.42 112.27L73.37 112.85L73.28 113.44L73.16 114.03L72.31 117.59L72.14 118.25L71.94 118.88L71.7 119.51L71.44 120.11L71.15 120.7L70.83 121.27L70.48 121.82L70.11 122.35L69.72 122.86L69.3 123.35L68.86 123.82L68.39 124.26L67.91 124.69L67.41 125.08L66.88 125.46L66.34 125.8L65.79 126.12L65.21 126.42L64.62 126.69L64.02 126.92L63.41 127.13L62.78 127.31L62.14 127.46L61.49 127.57L60.83 127.66L60.16 127.71L59.49 127.73L46.6 127.73L40.08 87.42L51.65 81.71L52.04 81.53L52.43 81.37L52.82 81.23L53.22 81.1L53.62 80.99L54.03 80.9L54.44 80.83L54.84 80.78L55.25 80.74L55.66 80.72L56.07 80.72L56.48 80.74L56.89 80.77ZM57.77 121.41L58.83 121.4L59.85 121.23L60.82 120.9L61.72 120.44L62.54 119.85L63.26 119.14L63.87 118.32L64.36 117.41L64.7 116.42L64.9 115.2L64.86 114L64.61 112.85L64.15 111.78L63.52 110.8L62.72 109.96L61.77 109.26L60.68 108.74L59.48 108.43L51.47 107.13L53.24 121.11L57.77 121.41ZM100.07 88.59L99.5 88.72L98.94 88.9L98.39 89.14L97.86 89.42L97.35 89.75L96.87 90.14L96.43 90.57L95.43 91.64L94.88 92.25L94.36 92.89L93.88 93.54L93.42 94.22L93.01 94.92L92.62 95.63L92.27 96.36L91.96 97.1L91.67 97.86L91.43 98.63L91.22 99.41L91.05 100.21L90.91 101.01L90.82 101.81L90.76 102.63L90.73 103.45L90.75 104.27L91 109.78L91.06 110.56L91.18 111.33L91.34 112.08L91.56 112.82L91.82 113.53L92.13 114.23L92.48 114.9L92.88 115.54L93.31 116.16L93.79 116.75L94.31 117.3L94.87 117.82L95.46 118.31L96.08 118.75L96.74 119.16L97.43 119.52L98 119.77L98.22 119.85L98.64 119.99L99.08 120.11L99.51 120.2L99.95 120.28L100.39 120.33L100.84 120.37L101.28 120.39L101.72 120.38L102.17 120.35L102.61 120.31L103.05 120.24L103.49 120.15L103.92 120.05L104.35 119.92L104.78 119.77L105.14 119.63L105.73 119.35L106.34 119.02L106.93 118.65L107.48 118.25L108.01 117.82L108.51 117.35L108.98 116.86L109.42 116.34L109.82 115.8L110.19 115.23L110.53 114.64L110.83 114.03L111.09 113.39L111.31 112.75L111.49 112.08L111.64 111.4L111.74 110.71L112.31 105.61L112.39 104.65L112.41 103.7L112.39 102.75L112.3 101.81L112.17 100.88L111.99 99.96L111.75 99.05L111.47 98.16L111.13 97.29L110.75 96.44L110.32 95.6L109.84 94.8L109.32 94.01L108.75 93.26L108.14 92.53L107.49 91.84L106.79 91.18L105.64 90.16L105.16 89.77L104.64 89.43L104.11 89.14L103.56 88.9L102.99 88.72L102.42 88.59L101.83 88.51L101.24 88.49L100.66 88.51L100.07 88.59ZM98 119.77L97.79 119.69L98.14 119.83L98 119.77ZM105.1 119.64L105.19 119.6L105.14 119.63L105.1 119.64ZM64.7 116.42L64.71 116.41L64.7 116.42L64.7 116.42ZM29.92 109.67L12.71 106.39L14.76 99.63L31.15 102.09L29.92 109.67ZM52.97 89.44L48.35 92.83L51.52 99.16L56.17 98.2L57.43 97.74L58.44 96.96L59.18 95.94L59.61 94.75L59.68 93.47L59.36 92.18L58.91 91.1L58.27 90.06L57.39 89.29L56.34 88.83L55.2 88.68L54.05 88.88L52.97 89.44ZM177.68 14.63L187.24 15.09L187.24 26.02L179.58 25L179.29 24.97L179 24.94L178.71 24.93L178.43 24.92L178.14 24.93L177.86 24.94L177.58 24.96L177.3 25L177.02 25.04L176.75 25.08L176.47 25.14L176.2 25.21L175.93 25.28L175.67 25.36L175.41 25.45L175.15 25.55L174.89 25.66L174.64 25.77L174.39 25.9L174.15 26.03L173.91 26.16L173.67 26.31L173.44 26.46L173.22 26.62L173 26.79L172.78 26.96L172.57 27.14L172.36 27.33L172.17 27.53L171.97 27.73L171.78 27.94L171.6 28.15L171.43 28.37L171.26 28.6L171.1 28.83L170.94 29.07L170.8 29.31L170.66 29.56L170.53 29.82L170.53 29.82L170.44 30.03L170.36 30.25L170.29 30.48L170.22 30.71L170.16 30.94L170.11 31.17L170.07 31.4L170.03 31.63L170 31.86L169.98 32.09L169.96 32.33L169.95 32.56L169.95 32.79L169.96 33.02L169.97 33.26L169.99 33.49L170.02 33.72L170.05 33.95L170.09 34.17L170.14 34.4L170.19 34.63L170.25 34.85L170.32 35.07L170.4 35.29L170.48 35.51L170.57 35.72L170.66 35.94L170.76 36.15L170.87 36.35L170.99 36.56L171.11 36.76L171.24 36.96L171.37 37.15L171.51 37.34L171.66 37.53L171.81 37.71L171.97 37.89L172.14 38.06L172.17 38.09L172.25 38.16L172.39 38.28L172.52 38.4L172.66 38.51L172.8 38.63L172.95 38.74L173.09 38.84L173.24 38.95L173.38 39.05L173.53 39.15L173.68 39.25L173.83 39.34L173.98 39.44L174.14 39.53L174.29 39.62L174.45 39.7L174.61 39.79L174.77 39.87L174.93 39.95L175.09 40.02L175.25 40.09L175.42 40.17L175.58 40.23L175.75 40.3L175.91 40.36L176.08 40.42L176.25 40.48L176.42 40.54L176.59 40.59L176.76 40.64L176.94 40.69L177.11 40.73L177.29 40.77L177.46 40.81L177.64 40.85L177.81 40.88L177.99 40.91L178.17 40.94L178.35 40.97L176.98 40.78L177.48 40.86L177.98 40.95L178.47 41.05L178.95 41.18L179.43 41.31L179.9 41.46L180.36 41.62L180.82 41.8L181.27 41.99L181.72 42.2L182.15 42.42L182.58 42.65L183 42.89L183.42 43.15L183.82 43.41L184.21 43.69L184.6 43.98L184.98 44.29L185.34 44.6L185.7 44.93L186.05 45.26L186.39 45.61L186.71 45.97L187.03 46.33L187.33 46.71L187.62 47.1L187.91 47.49L188.18 47.9L188.43 48.31L188.68 48.73L188.91 49.16L189.13 49.6L189.33 50.05L189.53 50.5L189.71 50.96L189.87 51.43L190.02 51.9L190.16 52.39L190.28 52.87L190.33 53.13L190.34 53.17L190.37 53.36L190.4 53.54L190.42 53.72L190.45 53.9L190.47 54.08L190.48 54.27L190.5 54.45L190.51 54.63L190.52 54.81L190.53 55L190.53 55.18L190.54 55.36L190.54 55.54L190.54 55.73L190.53 55.91L190.52 56.09L190.51 56.27L190.5 56.46L190.49 56.64L190.47 56.82L190.45 57L190.43 57.18L190.41 57.36L190.38 57.54L190.35 57.73L190.32 57.91L190.29 58.08L190.25 58.26L190.21 58.44L190.17 58.62L190.13 58.8L190.08 58.98L190.03 59.15L189.98 59.33L189.93 59.51L189.87 59.68L189.82 59.86L189.76 60.03L189.08 61.93L188.92 62.36L188.75 62.78L188.57 63.2L188.37 63.61L188.16 64.01L187.94 64.4L187.71 64.78L187.47 65.16L187.21 65.52L186.95 65.88L186.68 66.23L186.39 66.57L186.1 66.9L185.79 67.22L185.48 67.53L185.16 67.83L184.83 68.12L184.49 68.4L184.14 68.67L183.79 68.93L183.43 69.18L183.06 69.41L182.68 69.64L182.29 69.85L181.9 70.06L181.51 70.25L181.1 70.43L180.69 70.59L180.28 70.75L179.86 70.89L179.44 71.02L179.01 71.14L178.57 71.24L178.13 71.33L177.69 71.41L177.24 71.47L176.79 71.52L176.34 71.56L175.88 71.58L175.42 71.59L163.37 71.59L163.37 61.52L169.99 62.6L170.31 62.64L170.62 62.68L170.94 62.71L171.26 62.73L171.58 62.74L171.89 62.75L172.21 62.74L172.52 62.73L172.84 62.71L173.15 62.68L173.46 62.64L173.77 62.59L174.08 62.54L174.38 62.47L174.68 62.4L174.99 62.32L175.28 62.24L175.58 62.14L175.87 62.04L176.16 61.93L176.45 61.81L176.74 61.68L177.02 61.55L177.3 61.41L177.57 61.26L177.84 61.11L178.1 60.94L178.37 60.77L178.62 60.59L178.88 60.41L179.13 60.22L179.37 60.02L179.61 59.81L179.84 59.6L180.07 59.38L180.29 59.16L180.51 58.92L180.72 58.69L180.81 58.58L180.84 58.54L180.94 58.37L181.04 58.2L181.14 58.03L181.22 57.85L181.3 57.68L181.37 57.5L181.44 57.32L181.5 57.14L181.55 56.95L181.59 56.77L181.63 56.58L181.67 56.4L181.69 56.21L181.71 56.02L181.72 55.83L181.73 55.64L181.73 55.46L181.72 55.27L181.71 55.08L181.69 54.89L181.66 54.71L181.63 54.52L181.59 54.34L181.54 54.15L181.49 53.97L181.43 53.79L181.37 53.61L181.29 53.43L181.22 53.26L181.13 53.09L181.04 52.92L180.94 52.75L180.84 52.59L180.73 52.43L180.61 52.27L180.49 52.11L180.38 51.99L180.34 51.95L180.2 51.81L180.06 51.68L179.91 51.55L179.76 51.42L179.61 51.3L179.46 51.18L179.31 51.06L179.15 50.94L178.99 50.83L178.84 50.72L178.67 50.61L178.51 50.5L178.35 50.4L178.18 50.3L178.01 50.21L177.85 50.11L177.67 50.02L177.5 49.93L177.33 49.85L177.15 49.77L176.98 49.69L176.8 49.61L176.62 49.54L176.44 49.47L176.26 49.4L176.08 49.34L175.89 49.28L175.71 49.22L175.52 49.16L175.33 49.11L175.14 49.06L174.95 49.02L174.76 48.98L174.57 48.94L174.38 48.9L174.19 48.87L173.99 48.84L173.8 48.82L169.51 48.29L169.17 48.24L168.83 48.19L168.49 48.12L168.16 48.05L167.83 47.97L167.5 47.88L167.18 47.78L166.85 47.67L166.54 47.56L166.22 47.44L165.91 47.31L165.6 47.17L165.3 47.02L165 46.87L164.71 46.71L164.42 46.54L164.14 46.36L163.86 46.18L163.58 45.99L163.31 45.79L163.05 45.58L162.79 45.37L162.53 45.15L162.28 44.93L162.04 44.7L161.81 44.46L161.57 44.22L161.35 43.97L161.13 43.71L160.92 43.45L160.72 43.18L160.52 42.91L160.33 42.63L160.14 42.34L159.96 42.05L159.79 41.75L159.63 41.45L159.48 41.15L159.33 40.84L159.19 40.52L159.08 40.27L158.93 39.91L158.79 39.54L158.66 39.18L158.54 38.81L158.43 38.44L158.32 38.06L158.23 37.69L158.14 37.31L158.06 36.94L157.99 36.56L157.93 36.18L157.88 35.8L157.84 35.41L157.8 35.03L157.78 34.65L157.76 34.27L157.75 33.89L157.75 33.5L157.76 33.12L157.78 32.74L157.81 32.36L157.85 31.98L157.89 31.6L157.94 31.22L158.01 30.84L158.08 30.46L158.16 30.09L158.25 29.71L158.34 29.34L158.45 28.97L158.56 28.61L158.69 28.24L158.82 27.88L158.96 27.52L159.11 27.16L159.26 26.8L159.43 26.45L159.6 26.1L159.79 25.76L159.98 25.42L160.92 23.78L161.18 23.34L161.46 22.91L161.74 22.48L162.04 22.07L162.34 21.67L162.66 21.27L162.99 20.89L163.32 20.51L163.67 20.15L164.02 19.79L164.39 19.45L164.76 19.12L165.14 18.8L165.53 18.48L165.92 18.18L166.33 17.89L166.74 17.62L167.16 17.35L167.58 17.09L168.02 16.85L168.45 16.62L168.9 16.4L169.35 16.19L169.81 15.99L170.27 15.81L170.74 15.64L171.21 15.48L171.68 15.34L172.17 15.2L172.65 15.08L173.14 14.98L173.63 14.88L174.13 14.8L174.63 14.74L175.13 14.68L175.64 14.64L176.15 14.62L176.66 14.61L177.17 14.61L177.68 14.63ZM103.27 36.13L88.69 25.87L87.06 68L80.31 67.19L80.31 25.87L67.62 37.21L60.6 32.89L84.63 9.96L107.86 30.73L103.27 36.13ZM43.45 66.31L40.08 44.41L24.5 46.1L24.5 68L14.81 68L12.71 16.62L21.13 15.77L23.66 36.22L40.08 33.88L40.08 15.77L51.04 14.09L54.83 66.31L43.45 66.31ZM131.79 18.22L132.17 18.25L132.56 18.29L132.94 18.34L133.32 18.4L133.69 18.48L134.07 18.57L134.44 18.66L134.8 18.77L135.16 18.89L135.52 19.02L135.87 19.16L136.22 19.32L136.56 19.48L136.9 19.65L137.24 19.83L137.56 20.02L137.89 20.23L138.2 20.44L138.51 20.66L138.82 20.89L139.11 21.13L139.4 21.38L139.68 21.64L139.96 21.91L140.23 22.18L140.49 22.47L140.74 22.76L140.98 23.07L141.08 23.2L141.23 23.42L141.46 23.78L141.67 24.14L141.87 24.52L142.05 24.9L142.21 25.28L142.35 25.67L142.48 26.07L142.59 26.47L142.68 26.87L142.76 27.27L142.82 27.68L142.86 28.09L142.88 28.49L142.89 28.9L142.88 29.31L142.86 29.72L142.82 30.13L142.76 30.54L142.68 30.94L142.59 31.34L142.48 31.74L142.35 32.13L142.21 32.52L142.05 32.9L141.87 33.28L141.68 33.65L141.47 34.02L141.25 34.38L141 34.73L140.74 35.07L137.43 39.24L140.85 41.21L141.29 41.47L141.72 41.74L142.14 42.03L142.54 42.34L142.94 42.65L143.32 42.98L143.69 43.32L144.05 43.67L144.4 44.03L144.73 44.4L145.05 44.78L145.36 45.17L145.65 45.57L145.93 45.98L146.2 46.4L146.45 46.83L146.69 47.26L146.92 47.71L147.12 48.16L147.32 48.62L147.5 49.08L147.67 49.55L147.81 50.03L147.95 50.51L148.07 51L148.17 51.49L148.25 51.99L148.32 52.49L148.38 53L148.41 53.5L148.43 54.02L148.44 54.61L148.44 55.23L148.4 55.85L148.34 56.45L148.24 57.05L148.12 57.64L147.96 58.22L147.78 58.79L147.57 59.34L147.34 59.89L147.08 60.41L146.79 60.93L146.49 61.42L146.15 61.91L145.8 62.37L145.42 62.82L145.03 63.24L144.61 63.65L144.17 64.04L143.72 64.41L143.25 64.75L142.75 65.07L142.25 65.37L141.72 65.65L141.19 65.89L140.64 66.12L140.07 66.31L139.49 66.48L138.9 66.62L138.3 66.73L137.69 66.82L137.07 66.87L116.68 68L117.57 18.19L131.01 18.19L131.4 18.2L131.79 18.22ZM180.81 58.58L180.73 58.7L180.61 58.86L181.13 58.19L180.93 58.44L180.81 58.58ZM133.48 58.46L134.31 58.39L135.09 58.2L135.82 57.88L136.49 57.46L137.08 56.93L137.59 56.32L137.99 55.63L138.29 54.88L138.46 54.07L138.52 53.54L138.56 52.61L138.45 51.7L138.2 50.84L137.83 50.03L137.33 49.3L136.72 48.65L136.01 48.09L135.22 47.66L134.34 47.35L125.97 45.14L125.49 58.46L133.48 58.46ZM190.33 53.13L190.31 52.99L190.28 52.81L190.39 53.37L190.33 53.13ZM180.38 51.99L180.48 52.09L180.62 52.23L180.22 51.82L180.36 51.96L180.38 51.99ZM172.17 38.09L172.12 38.04L171.99 37.92L172.31 38.23L172.17 38.09ZM130.44 34.19L131.94 33.71L133.12 32.79L133.93 31.57L134.3 30.15L134.19 28.66L133.56 27.24L133.24 26.83L132.81 26.44L132.34 26.11L131.82 25.86L131.26 25.69L130.69 25.6L125.68 25.23L126.81 34.69L130.44 34.19ZM170.53 29.82L170.53 29.8L170.63 29.58L170.4 30.08L170.53 29.82ZM133.6 27.29L133.54 27.21L133.56 27.24L133.6 27.29ZM141.08 23.2L140.99 23.06L141.22 23.38L141.08 23.2Z" id="c1naO2BosV"></path></defs><g><g><g><g><use xlink:href="#aBWgbsEZL" opacity="1" fill-opacity="0" stroke="#000000" stroke-width="1" stroke-opacity="1"></use></g></g><g><use xlink:href="#c1naO2BosV" opacity="1" fill="#ffcd5c" fill-opacity="1"></use></g></g></g></svg>