<?xml version="1.0" encoding="UTF-8" standalone="no"?>
<!DOCTYPE svg PUBLIC "-//W3C//DTD SVG 1.1//EN" "http://www.w3.org/Graphics/SVG/1.1/DTD/svg11.dtd">
<svg version="1.1" xmlns="http://www.w3.org/2000/svg" xmlns:xlink="http://www.w3.org/1999/xlink" preserveAspectRatio="xMidYMid meet" viewBox="0 0 296 210" width="592" height="420"><defs><path d="M69.78 54.85L70.22 56.99L74.25 56.78C74.97 58.63 75.43 59.78 75.61 60.25C75.65 60.35 75.75 60.41 75.86 60.41C76.08 60.41 76.64 60.4 77.54 60.38L77.22 56.6L80.79 57.64L81.54 56.24L78.23 54.26L80.47 51.99L79.25 50.97L76.11 52.84L74.19 49.06L72.58 49.97L73.36 53.79L69.78 54.85Z" id="a18yzzV7pq"></path><path d="M65.02 76.5L66.24 76.9C64.02 81.4 62.63 84.22 62.07 85.34C61.01 87.5 59.67 89.52 58.1 91.34C55.8 94 52.93 97.33 51.05 99.51C48.13 102.89 45.93 106.82 44.58 111.08C43.24 115.3 40.94 122.57 39.52 127.05C38.44 130.46 36.72 133.63 34.47 136.4C31.55 140 26.66 146.01 23.85 149.46C21.23 152.68 19.42 156.5 18.59 160.57C17.21 167.3 14.83 178.88 13.58 185.01C12.34 191.04 9.57 196.65 5.53 201.3C2.51 204.77 -5.04 213.45 -17.12 227.35L-38.96 218.12C-25.16 204.82 -16.53 196.51 -13.08 193.19C-7.83 188.13 -4.24 181.6 -2.77 174.47C-0.26 162.2 3.09 152.97 7.28 146.77C12 139.77 18.49 134 26.75 129.45C30.05 127.63 32.6 124.72 33.98 121.21C35.56 117.16 38.06 110.77 39.62 106.8C41.12 102.96 43.53 99.54 46.65 96.85C48.96 94.84 52.7 91.6 55.41 89.27C57.27 87.66 58.89 85.8 60.25 83.74C60.88 82.78 62.48 80.36 65.02 76.5Z" id="a32sFWFiHL"></path><path d="M-23.25 48.7C-18.23 48.16 -15.1 47.82 -13.85 47.68C-7.26 46.96 -0.61 48 5.45 50.68C8.09 51.84 14.7 54.76 25.26 59.43C25.26 59.43 25.26 59.43 25.26 59.43C31.33 61.64 37.85 62.28 44.23 61.3C45.91 61.04 50.13 60.38 56.87 59.34L57.45 61.31C49.19 63.21 44.03 64.4 41.97 64.88C40.79 65.15 39.59 65.33 38.39 65.43C35.18 65.67 38.75 65.4 38.39 65.43C27.84 66.24 17.26 64.53 7.5 60.45C5.15 59.46 10.47 61.69 7.5 60.45C-0.19 57.23 -8.61 56.15 -16.87 57.34C-17.62 57.45 -19.51 57.72 -22.53 58.15L-23.25 48.7Z" id="dILPPRrvQ"></path><path d="M85.8 74.92C87.67 79.7 88.84 82.68 89.31 83.88C90.76 87.55 92.65 91.02 94.97 94.22C96.37 96.16 94.27 93.25 94.97 94.22C99.6 100.62 102.75 107.98 104.19 115.75C104.57 117.78 104.65 118.24 105.31 121.81C105.81 124.51 106.92 127.06 108.54 129.27C111.4 133.16 113.1 135.48 114.85 137.87C120.04 144.93 122.94 153.41 123.16 162.16C123.28 166.76 123.29 167.12 123.4 171.72C123.63 180.6 125.61 189.35 129.24 197.45C130.43 200.11 133.4 206.77 138.16 217.41L118.07 223.01C113.6 211.63 110.81 204.52 109.69 201.68C106.27 192.98 105.05 183.58 106.11 174.3C106.57 170.32 106.79 168.44 107.36 163.44C108.04 157.56 106.78 151.61 103.78 146.5C102.01 143.51 100.61 141.12 98.66 137.81C96.25 133.71 95.13 128.97 95.45 124.22C95.74 120 95.91 117.44 96.15 113.92C96.62 106.93 94.74 99.99 90.8 94.19C90.28 93.43 92.01 95.98 90.8 94.19C89.07 91.65 87.8 88.83 87.04 85.85C86.68 84.4 85.76 80.78 84.29 74.99L85.8 74.92Z" id="a2lp9EBOJn"></path><path d="M55.03 8.21C54.76 3.96 54.03 -0.25 52.87 -4.35C52.69 -4.96 52.26 -6.48 51.57 -8.92L38.1 -11.23C41.42 -5.87 43.5 -2.53 44.33 -1.19C45.55 0.79 46.46 2.95 47.01 5.21C47.92 8.9 46.85 4.53 47.01 5.21C49.96 17.26 56.35 28.2 65.41 36.68C65.55 36.82 65.92 37.16 66.5 37.7L67.47 36.38C64.11 32.11 62.01 29.43 61.17 28.37C57.72 23.99 55.69 18.66 55.34 13.1C55.19 10.84 55.2 10.9 55.03 8.21Z" id="a1WoOjvZG"></path><path d="M83.58 184.85C85.46 186.09 86.67 188.12 86.89 190.36C87 191.55 86.9 190.55 86.99 191.49C87.28 194.46 85.92 197.34 83.46 199.02C82.59 199.62 84.26 198.48 83.46 199.02C80.81 200.83 77.33 200.91 74.61 199.21C73.6 198.59 75.09 199.51 74.09 198.89C71.32 197.17 69.71 194.08 69.88 190.83C69.91 190.28 69.75 193.32 69.79 192.63C69.94 189.72 71.22 186.98 73.34 184.99C73.63 184.72 72.16 186.1 72.69 185.6C74.06 184.32 75.07 182.7 75.63 180.9C75.82 180.27 76.3 178.71 77.07 176.2C77.63 177.42 77.98 178.18 78.12 178.48C79.31 181.07 81.2 183.28 83.58 184.85C84.17 185.24 82.85 184.37 83.58 184.85Z" id="b1My1wZ5F4"></path><path d="M135.44 90.66C136.42 90.36 137.49 90.52 138.34 91.09C138.79 91.4 138.42 91.14 138.77 91.38C139.9 92.14 140.53 93.45 140.41 94.81C140.36 95.29 140.45 94.37 140.41 94.81C140.28 96.27 139.3 97.52 137.91 97.99C137.4 98.16 138.16 97.9 137.65 98.08C136.24 98.56 134.68 98.23 133.58 97.23C133.4 97.06 134.42 98 134.19 97.78C133.21 96.88 132.61 95.64 132.53 94.32C132.51 94.14 132.57 95.06 132.55 94.72C132.5 93.87 132.22 93.04 131.74 92.33C131.58 92.08 131.17 91.45 130.5 90.46C131.1 90.61 131.46 90.71 131.61 90.75C132.87 91.07 134.2 91.05 135.44 90.66C135.75 90.57 135.06 90.78 135.44 90.66Z" id="b3cURSlssV"></path><path d="M76.37 109.19C77.18 109.84 77.65 110.81 77.65 111.83C77.66 112.38 77.65 111.92 77.66 112.35C77.67 113.71 76.93 114.97 75.75 115.63C75.32 115.87 76.13 115.42 75.75 115.63C74.47 116.35 72.88 116.24 71.71 115.36C71.28 115.04 71.92 115.52 71.49 115.19C70.3 114.3 69.69 112.83 69.91 111.36C69.94 111.11 69.74 112.49 69.79 112.17C69.98 110.86 70.67 109.66 71.71 108.85C71.85 108.73 71.13 109.3 71.39 109.1C72.07 108.57 72.59 107.87 72.92 107.08C73.03 106.8 73.31 106.11 73.76 105C73.97 105.57 74.1 105.93 74.15 106.08C74.59 107.3 75.36 108.38 76.37 109.19C76.63 109.4 76.06 108.95 76.37 109.19Z" id="a1LCowkv1A"></path><path d="M53.89 155.67C54.71 157.28 54.75 159.18 54.02 160.83C53.63 161.7 53.96 160.97 53.65 161.65C52.68 163.84 50.59 165.32 48.21 165.52C47.36 165.59 48.98 165.45 48.21 165.52C45.64 165.73 43.19 164.41 41.95 162.15C41.5 161.32 42.17 162.55 41.72 161.73C40.47 159.43 40.56 156.64 41.97 154.44C42.21 154.07 40.89 156.12 41.19 155.65C42.45 153.69 44.42 152.28 46.69 151.73C46.99 151.66 45.42 152.04 45.99 151.9C47.46 151.54 48.8 150.81 49.9 149.78C50.28 149.42 51.23 148.51 52.76 147.07C52.67 148.14 52.62 148.81 52.59 149.07C52.4 151.35 52.85 153.64 53.89 155.67C54.15 156.18 53.57 155.05 53.89 155.67Z" id="c7fBAv54OJ"></path><path d="M17.86 92.13C17.67 93.14 17.03 94.01 16.12 94.5C15.64 94.76 16.05 94.54 15.67 94.74C14.47 95.39 13.01 95.33 11.87 94.59C11.47 94.32 12.24 94.83 11.87 94.59C10.64 93.79 10 92.34 10.23 90.89C10.31 90.36 10.19 91.15 10.27 90.62C10.51 89.15 11.52 87.93 12.92 87.43C13.16 87.34 11.85 87.81 12.15 87.7C13.4 87.25 14.78 87.31 15.99 87.85C16.15 87.92 15.32 87.55 15.62 87.68C16.4 88.03 17.26 88.17 18.12 88.09C18.41 88.06 19.16 87.99 20.35 87.87C19.94 88.32 19.68 88.6 19.58 88.71C18.7 89.67 18.1 90.85 17.86 92.13C17.8 92.45 17.93 91.74 17.86 92.13Z" id="jawQxqEZs"></path><path d="M157.76 152.09C159.68 152.18 161.46 153.13 162.59 154.68C163.2 155.5 162.69 154.81 163.16 155.45C164.67 157.5 164.94 160.21 163.87 162.51C163.49 163.33 164.22 161.76 163.87 162.51C162.72 164.99 160.21 166.57 157.48 166.52C156.47 166.5 157.96 166.53 156.96 166.51C154.18 166.46 151.65 164.91 150.36 162.45C150.14 162.04 151.35 164.33 151.07 163.81C149.91 161.61 149.65 159.05 150.33 156.67C150.43 156.35 149.95 158 150.13 157.4C150.57 155.86 150.6 154.23 150.22 152.67C150.09 152.13 149.75 150.78 149.22 148.61C150.16 149.25 150.75 149.65 150.98 149.81C152.99 151.19 155.34 151.98 157.76 152.09C158.37 152.12 157.02 152.05 157.76 152.09Z" id="e8hvuswyf"></path><path d="M22.17 36.57C21.27 37.07 20.2 37.13 19.24 36.74C18.74 36.54 19.16 36.71 18.77 36.55C17.5 36.04 16.62 34.88 16.46 33.53C16.41 33.05 16.51 33.97 16.46 33.53C16.29 32.07 16.99 30.65 18.25 29.91C18.72 29.63 18.03 30.04 18.49 29.77C19.77 29.01 21.36 29.01 22.64 29.76C22.86 29.89 21.66 29.18 21.94 29.35C23.08 30.02 23.92 31.11 24.28 32.39C24.32 32.57 24.08 31.68 24.17 32C24.4 32.83 24.84 33.58 25.45 34.18C25.66 34.39 26.19 34.92 27.05 35.76C26.44 35.73 26.05 35.71 25.9 35.7C24.6 35.64 23.31 35.94 22.17 36.57C21.89 36.73 22.52 36.38 22.17 36.57Z" id="a4MuZP9JM6"></path><path d="M16.24 9.9C14.32 9.85 12.53 8.93 11.37 7.4C10.75 6.59 11.27 7.27 10.78 6.63C9.24 4.61 8.93 1.91 9.95 -0.41C10.32 -1.24 9.62 0.34 9.95 -0.41C11.06 -2.92 13.54 -4.53 16.28 -4.53C17.28 -4.53 15.79 -4.53 16.8 -4.53C19.57 -4.53 22.13 -3.02 23.47 -0.59C23.69 -0.18 22.44 -2.45 22.73 -1.93C23.92 0.24 24.23 2.8 23.59 5.19C23.5 5.52 23.95 3.86 23.79 4.46C23.37 6.01 23.37 7.64 23.78 9.19C23.92 9.73 24.27 11.08 24.84 13.24C23.89 12.61 23.3 12.22 23.06 12.06C21.03 10.72 18.67 9.97 16.24 9.9C15.64 9.88 16.99 9.92 16.24 9.9Z" id="c6qezcpU8B"></path><path d="M132.99 58.54C136.24 59.45 139.64 59.64 142.97 59.09C148.64 58.15 148.33 58.2 150.94 57.77C164.15 55.57 177.71 57.84 189.5 64.2C196.67 68.07 185.86 62.24 189.5 64.2C212.59 76.66 239.46 80.16 264.97 74.04C271.09 72.56 257.24 75.89 265.22 73.98C284.85 69.26 305.52 71.46 323.72 80.22C324.86 80.78 327.73 82.15 332.31 84.36L331.22 48.22C318.26 46.85 310.17 46 306.93 45.66C291.7 44.06 276.31 45.85 261.87 50.91C254.75 53.41 266.26 49.38 261.87 50.91C238.83 58.99 213.72 58.99 190.68 50.92C186.18 49.34 191.8 51.31 183.18 48.29C173.45 44.88 162.88 44.68 153.03 47.73C149.76 48.74 148.06 49.27 143.03 50.82C138.86 52.11 134.44 52.34 130.16 51.5C127.43 50.96 127.21 50.91 124.85 50.45C119.36 49.36 113.68 49.65 108.33 51.28C106.74 51.77 102.75 52.98 96.37 54.93L96.75 56.54C102.8 55.74 106.58 55.24 108.1 55.04C113.71 54.29 119.42 54.7 124.88 56.24C127.48 56.98 129.72 57.61 132.99 58.54Z" id="dRZDYsAy3"></path><path d="M91.66 35.82L90.44 35.42C92.67 30.92 94.06 28.1 94.61 26.98C95.68 24.82 97.01 22.8 98.59 20.98C100.88 18.32 103.75 14.99 105.64 12.81C108.55 9.43 110.75 5.5 112.1 1.24C113.44 -2.98 115.75 -10.25 117.17 -14.73C118.25 -18.14 119.96 -21.31 122.22 -24.08C125.14 -27.68 130.02 -33.69 132.83 -37.14C135.45 -40.36 137.26 -44.18 138.1 -48.25C139.48 -54.98 141.85 -66.56 143.11 -72.69C144.35 -78.72 147.12 -84.33 151.16 -88.98C154.18 -92.45 161.73 -101.13 173.8 -115.03L195.65 -105.8C181.84 -92.5 173.21 -84.19 169.76 -80.87C164.51 -75.81 160.92 -69.28 159.46 -62.15C156.94 -49.88 153.59 -40.65 149.41 -34.45C144.69 -27.45 138.2 -21.68 129.94 -17.13C126.64 -15.31 124.08 -12.4 122.71 -8.89C121.12 -4.84 118.62 1.55 117.07 5.52C115.57 9.36 113.15 12.78 110.04 15.47C107.73 17.48 103.98 20.72 101.28 23.05C99.42 24.66 97.79 26.52 96.44 28.57C95.8 29.54 94.21 31.96 91.66 35.82Z" id="efXJKEYT"></path><path d="M250.76 115.19C253.49 113.61 256.79 113.34 259.74 114.46C261.3 115.06 259.99 114.56 261.22 115.03C265.12 116.51 267.9 120.01 268.47 124.14C268.68 125.61 268.29 122.8 268.47 124.14C269.1 128.6 267.03 133 263.21 135.37C261.81 136.24 263.89 134.95 262.49 135.82C258.61 138.23 253.73 138.33 249.76 136.09C249.09 135.71 252.8 137.8 251.95 137.33C248.4 135.32 245.76 132.03 244.58 128.13C244.42 127.6 245.24 130.3 244.94 129.32C244.18 126.8 242.78 124.52 240.87 122.71C240.2 122.08 238.54 120.51 235.87 117.98C237.74 118.04 238.91 118.07 239.38 118.08C243.37 118.2 247.31 117.19 250.76 115.19C251.63 114.69 249.71 115.8 250.76 115.19Z" id="a12v31LzMY"></path><path d="M143.34 20.42C143.63 19.43 144.35 18.63 145.31 18.24C145.81 18.04 145.39 18.21 145.78 18.05C147.04 17.53 148.48 17.74 149.54 18.59C149.92 18.89 149.2 18.32 149.54 18.59C150.68 19.51 151.18 21.02 150.8 22.43C150.66 22.95 150.86 22.18 150.73 22.7C150.34 24.14 149.21 25.25 147.76 25.61C147.52 25.67 148.87 25.34 148.56 25.41C147.27 25.73 145.91 25.53 144.75 24.87C144.6 24.78 145.39 25.24 145.11 25.07C144.36 24.64 143.52 24.42 142.66 24.41C142.36 24.41 141.62 24.41 140.42 24.4C140.88 24 141.16 23.75 141.28 23.64C142.25 22.78 142.96 21.66 143.34 20.42C143.43 20.11 143.22 20.8 143.34 20.42Z" id="f97iUSIaDD"></path><path d="M79.22 -0.6C78.58 -1.4 78.34 -2.46 78.57 -3.46C78.69 -3.99 78.59 -3.54 78.68 -3.96C78.98 -5.29 79.98 -6.35 81.29 -6.73C81.75 -6.86 80.86 -6.6 81.29 -6.73C82.69 -7.13 84.21 -6.67 85.15 -5.55C85.5 -5.13 84.98 -5.75 85.33 -5.33C86.29 -4.19 86.54 -2.62 86.01 -1.24C85.91 -1 86.42 -2.3 86.3 -2C85.82 -0.76 84.88 0.24 83.67 0.8C83.51 0.88 84.34 0.49 84.04 0.63C83.27 0.99 82.6 1.55 82.1 2.25C81.93 2.49 81.5 3.1 80.8 4.08C80.73 3.47 80.69 3.09 80.67 2.94C80.53 1.65 80.02 0.42 79.22 -0.6C79.01 -0.85 79.46 -0.28 79.22 -0.6Z" id="e4bcKTQzn7"></path><path d="M267.44 -7.93C269 -10.95 271.83 -13.11 275.16 -13.8C276.92 -14.17 275.44 -13.86 276.83 -14.15C281.23 -15.07 285.79 -13.51 288.71 -10.1C289.75 -8.88 287.76 -11.2 288.71 -10.1C291.86 -6.41 292.55 -1.22 290.46 3.15C289.69 4.75 290.83 2.37 290.06 3.97C287.94 8.41 283.58 11.34 278.67 11.61C277.84 11.66 282.43 11.4 281.38 11.46C276.99 11.71 272.68 10.25 269.35 7.4C268.89 7.01 271.2 8.98 270.37 8.27C268.21 6.42 265.62 5.17 262.83 4.64C261.86 4.46 259.43 3.99 255.55 3.25C257.28 2.21 258.36 1.56 258.79 1.3C262.48 -0.91 265.47 -4.11 267.44 -7.93C267.93 -8.89 266.84 -6.76 267.44 -7.93Z" id="a2kxsm6YWF"></path><path d="M231.98 180.77C236.8 181.07 241.22 183.53 244.02 187.46C245.5 189.55 244.26 187.8 245.43 189.44C249.13 194.64 249.71 201.45 246.93 207.21C245.94 209.25 247.83 205.34 246.93 207.21C243.94 213.41 237.57 217.26 230.69 217.03C228.17 216.95 231.92 217.07 229.39 216.99C222.41 216.76 216.11 212.75 212.96 206.52C212.43 205.48 215.38 211.29 214.7 209.96C211.88 204.4 211.32 197.96 213.13 191.99C213.37 191.18 212.12 195.31 212.57 193.82C213.74 189.96 213.89 185.87 212.99 181.94C212.68 180.58 211.9 177.15 210.65 171.68C212.99 173.34 214.45 174.37 215.03 174.79C220.02 178.32 225.89 180.39 231.98 180.77C233.5 180.87 230.12 180.65 231.98 180.77Z" id="b4XQD1lcjQ"></path></defs><g><g><g><use xlink:href="#a18yzzV7pq" opacity="1" fill="#ffcd5c" fill-opacity="1"></use></g><g><use xlink:href="#a32sFWFiHL" opacity="1" fill="#ffcd5c" fill-opacity="1"></use></g><g><use xlink:href="#dILPPRrvQ" opacity="1" fill="#ffcd5c" fill-opacity="1"></use></g><g><use xlink:href="#a2lp9EBOJn" opacity="1" fill="#ffcd5c" fill-opacity="1"></use></g><g><use xlink:href="#a1WoOjvZG" opacity="1" fill="#ffcd5c" fill-opacity="1"></use></g><g><use xlink:href="#b1My1wZ5F4" opacity="1" fill="#5d89ff" fill-opacity="1"></use></g><g><use xlink:href="#b3cURSlssV" opacity="1" fill="#bfd8ff" fill-opacity="1"></use></g><g><use xlink:href="#a1LCowkv1A" opacity="1" fill="#bfd8ff" fill-opacity="1"></use></g><g><use xlink:href="#c7fBAv54OJ" opacity="1" fill="#bfd8ff" fill-opacity="1"></use></g><g><use xlink:href="#jawQxqEZs" opacity="1" fill="#5d89ff" fill-opacity="1"></use></g><g><use xlink:href="#e8hvuswyf" opacity="1" fill="#bfd8ff" fill-opacity="1"></use></g><g><use xlink:href="#a4MuZP9JM6" opacity="1" fill="#bfd8ff" fill-opacity="1"></use></g><g><use xlink:href="#c6qezcpU8B" opacity="1" fill="#5d89ff" fill-opacity="1"></use></g><g><use xlink:href="#dRZDYsAy3" opacity="1" fill="#ffcd5c" fill-opacity="1"></use></g><g><use xlink:href="#efXJKEYT" opacity="1" fill="#ffcd5c" fill-opacity="1"></use></g><g><use xlink:href="#a12v31LzMY" opacity="1" fill="#bfd8ff" fill-opacity="1"></use></g><g><use xlink:href="#f97iUSIaDD" opacity="1" fill="#bfd8ff" fill-opacity="1"></use></g><g><use xlink:href="#e4bcKTQzn7" opacity="1" fill="#bfd8ff" fill-opacity="1"></use></g><g><use xlink:href="#a2kxsm6YWF" opacity="1" fill="#bfd8ff" fill-opacity="1"></use></g><g><use xlink:href="#b4XQD1lcjQ" opacity="1" fill="#bfd8ff" fill-opacity="1"></use></g></g></g></svg>