<?xml version="1.0" encoding="UTF-8"?>
<!-- Created with Inkscape (http://www.inkscape.org/) -->
<svg width="210mm" height="210mm" version="1.1" viewBox="0 0 210 210" xmlns="http://www.w3.org/2000/svg">
 <g>
  <g transform="matrix(1.1719 0 0 1.1545 13.536 -33.955)">
   <path transform="scale(.26458)" d="m222.13 152.59-1.1406 27.975s-7.295-7.3253-17.557-5.0449c-10.262 2.2804-17.588 9.1894-17.588 9.1894l-6.8398-25.084-15.963 7.9824s9.1217 85.514 5.7012 112.88c-3.4206 27.364-42.188 28.505-53.59 35.346-11.402 6.8411-34.206 132.26-36.486 212.07-2.0522 71.826 3.9437 168.77 5.2168 188.34-0.34874 0.44489-0.46541 1.1118-0.58203 1.6719-0.40222 1.9318-0.1221 3.9206-0.24414 5.877-0.05358 0.85897-0.15896 1.779-0.70117 2.4844-0.69219 0.90048-1.7704 1.4121-2.7402 1.9844-3.4553 2.0389-7.254 3.4979-10.508 5.877-1.4582 1.0662-2.854 2.3746-3.5332 4.0898-0.51522 1.301-0.42244 2.7856 0.13477 4.0547 0.58094 1.3231 1.4539 2.6137 2.7715 3.2891 1.3949 0.71497 3.03 0.71819 4.5352 0.43359 2.5782-0.48722 4.952-1.6619 7.332-2.7207 1.7163-0.76354 3.2153-1.9312 4.8398-2.8691 0.11746-0.0677 0.52741-0.35216 0.48633-0.13672-0.18734 0.98279-1.51 1.3028-2.3672 1.8008-1.0583 0.61478-2.1333 1.2632-2.9043 2.2344-1.0194 1.2841-1.985 2.6484-2.5801 4.1895-0.49534 1.2828-0.61796 2.7039-0.30664 4.0449 0.24715 1.0645 0.73528 2.2022 1.7598 2.7148 1.0795 0.54013 2.3514 0.31533 3.4473-0.0547 2.1061-0.71138 3.9418-2.035 5.6738-3.4023 2.5493-2.0126 4.8321-4.3717 6.7891-6.9668 0.4746-0.62935 0.93351-1.284 1.3125-1.9805-0.15628 0.62584-0.27133 1.2672-0.42578 1.8887-0.58545 2.3558-0.98041 4.786-0.89258 7.2226 0.04313 1.1963 0.2456 2.4684 0.99219 3.4473 0.52843 0.69267 1.4118 1.0364 2.2676 0.99219 1.9235-0.0996 3.6809-1.152 4.9941-2.5098 1.9762-2.0432 3.2073-4.676 4.1465-7.3281 1.5679-4.4275 2.2283-9.1352 2.4336-13.816 0.13787-3.1442 0.026-6.319-0.49609-9.4277 0.19699-5.2927 3.3555-90.714 3.3555-132.71 0-43.327 30.785-209.79 30.785-209.79s-2.2814 75.252 2.2793 160.77c4.5607 85.514 13.705 207.42 20.523 217.78 6.8184 10.351 27.365 11.402 27.365 11.402l7.9805-9.123-9.1211-6.8398s3.1787-126.24 7.1758-138.98c2.5452-8.1077 8.7172-9.5816 17.102-2.5449 9.9579 8.3572-9.8053 96.418-7.1738 119.86s6.8398 22.803 6.8398 22.803l20.523-4.5606-1.1406-17.102s6.4366-25.773 18.377-60.566c10.58-30.829 14.751-72.843 15.83-83.098 2.2804-21.663 14.822-183.57 14.822-183.57 0 0 69.551 126.56 85.514 131.12 14.135 4.0385 68.442 5.987 82.141 6.4492 0.15138 0.46439 0.94377 0.27474 1.418 0.38086 3.1751 0.71025 6.449 0.85552 9.6758 1.2637 1.633 0.20655 3.277 0.37393 4.8867 0.72656 3.4022 0.7454 6.8356 0.96986 10.221 1.6543 5.0936 1.0299 10.137 2.3178 15.281 3.0879 4.5672 0.68383 9.2398 1.1063 13.836 0.44531 3.1147-0.44791 6.2652-1.5355 8.5801-3.7461 0.39572-0.37652 0.66029-0.92462 0.37305-1.4141-0.50223-0.85621-1.3103-1.4608-2.0996-2.0234-2.3056-1.6432-4.9552-2.7343-7.5566-3.832-1.4185-0.59857-2.856-1.1664-4.334-1.6035 4.5159 0.0638 9.0455-0.0181 13.541-0.49414 1.4771-0.1564 2.9844-0.35043 4.3633-0.9375 0.40229-0.17129 0.9279-0.50974 0.80469-1.0215-0.1575-0.65511-0.67644-1.1677-1.1328-1.6582-1.557-1.6736-3.7505-2.5733-5.8828-3.293-4.4114-1.4888-9.0865-1.9294-13.699-2.3848-1.7693-0.17462-3.5449-0.21534-5.3184-0.14844-1.9572 0.0736-3.9152 0.0766-5.873 0.0762-5.8591-1e-3 11.673-0.96023 17.375-2.2441 2.9155-0.6565 5.9102-1.1047 8.668-2.3106 0.62729-0.27428 1.2921-0.53905 1.7871-1.0293 0.0641-0.0634 0.15985-0.18305 0.26563-0.29492-1.3905-1.0166-4.4488-3.797-6.1445-4.4082-2.8621-1.0317-5.8741-1.5942-8.873-2.0898-6.3303-1.0461-12.786-1.3101-19.189-0.92188-1.8122 0.10988-3.5073 0.86315-5.2148 1.4336-1.2966 0.43313-2.6098 0.93776-3.9922 0.98047-1.2233 0.0376 2.0478-1.3467 3.1094-1.957 3.157-1.8151 6.9072-2.3795 10.088-4.1875 1.3877-0.78883 2.8102-1.507 4.1738-2.334 0.84302-0.51129 1.7358-1.109 2.1641-2.0371 0.47362-1.0264 0.0326-2.1907-0.55859-3.0742-1.0623-1.5876-2.606-2.7849-4.1973-3.8105-1.0224-0.659-2.1192-1.2592-3.3184-1.5234-3.9866-0.8787-8.1735 0.54789-11.863 2.2324-5.2252 2.3855-9.7813 6.34-12.682 11.322-0.0821 0.14099-0.15929 0.28476-0.23828 0.42773-9.6372-2.2594-67.344-15.784-75.762-17.889-9.1215-2.2804-70.488-173.02-77.301-179.84-7.2561-7.2561-36.382-12.196-46.863-17.033-10.481-4.8374-11.518-10.645-11.518-22.047 0-11.402 68.41-20.523 68.41-20.523s11.584-36.78 2.2812-45.607c-9.3024-8.827-76.393-19.383-76.393-19.383l-1.1406-37.625zm295.75 371.23c0.6612 0.48341 0.94958 0.57329 0.52734-0.16797-0.11828-0.20773-0.33821-0.0321-0.52734 0.16797zm-26.721 14.291c0.0578-0.0111 0.1252-6.2e-4 0.18945 0.0449 0.095 0.0674 0.19167 0.12842 0.29101 0.1875-0.1542 0.0274-0.30988 0.0476-0.46874 0.0391-0.28055-0.0145-0.18518-0.23816-0.0117-0.27149z" fill="#00ffab"/>
   <g fill="#fdfffd">
    <path d="m56.773 98.747c-0.89448-1.5237-2.548-2.5798-4.3117-2.7246-2.3711-0.74691-5.3009 0.07862-6.558 2.3221-0.73 0.69973-0.93464 1.9772 0.27147 2.2906 0.947 0.80554 1.9083 0.17235 2.5939-0.53955 0.8944-0.66642 1.9241-1.4327 3.107-1.1331 1.2507 0.12378 2.0873 1.6067 3.3332 1.4539 0.6091-0.42596 1.1502-1.0741 1.5642-1.6694z" opacity=".8"/>
    <path d="m60.767 99.303c0.14362-2.2818 2.5919-4.1383 4.8248-3.5054 0.96759 0.0433 1.838 0.61898 2.3292 1.4461 0.42975 0.75126 0.92935 1.625 0.76082 2.5154-0.64446 0.58149-2.1109 0.9101-2.6968-0.0086-0.16279-0.32732-0.77886-1.6095-0.0027-1.3496-1.2514-0.54645-1.5646 0.85647-2.1075 1.6253-0.61986 1.0952-1.6389 0.0926-2.4149-0.21405-0.25216-0.13726-0.49648-0.29739-0.69281-0.50916z" opacity=".8"/>
    <path d="m46.567 107.16c1.0473 1.2846 2.8252 1.4288 4.1862 2.2346 1.079 0.4159 2.1783 0.79613 3.294 1.0946 1.394 0.22786 2.8201 0.15551 4.2079 0.44091 2.5023 0.19726 5.1372-0.22032 7.2664-1.6161 0.81558-0.68097 1.7868-1.0449 2.7515-1.4542 1.3482-0.84336-0.48929-1.6844-0.97541-2.3735-0.91187 0.58656-1.9764 0.77465-2.996 1.0507-0.33614 0.11524 0.67536-0.23406 0.0176 0.0564-2.1156 0.92048-4.4716 0.47467-6.7048 0.54285-1.3275 0.0686-2.6117-0.4319-3.9376-0.4012-1.346-0.26819-2.6168-0.84196-3.9825-1.0222-0.92142-0.66544-2.3079-0.52631-2.6755 0.66086-0.18245 0.24024-0.38579 0.48375-0.4518 0.78628z" opacity=".8"/>
   </g>
  </g>
  <g transform="matrix(.83602 0 0 .82044 17.664 31.066)">
   <path d="m146.42 147.25c-1.4154 1.9994-2.3774 4.2641-3.4586 6.4497-0.782 1.5808-1.6656 3.1214-2.7794 4.4968-1.8074 2.2317-3.9283 4.213-5.5645 6.5747-0.43104 0.62215-0.79694 1.2881-1.1232 1.97-0.40686 0.8505-0.79617 1.7264-0.96123 2.6586-0.079 0.44632-0.14345 0.93229 0.0411 1.3585 0.0891 0.20576 0.24283 0.44033 0.4824 0.4614 0.2519 0.0221 0.46393-0.16062 0.61751-0.33755 0.27532-0.31718 0.4169-0.72377 0.64056-1.0785 0.0366-0.0581 8e-3 -0.17274-4e-3 -0.0423-0.037 0.40979-0.019 0.82514 0.0421 1.231 0.0432 0.28695 0.0799 0.58734 0.22568 0.84382 0.0985 0.17332 0.35278 0.17663 0.49342 0.0467 0.24185-0.22345 0.18669-1.0219 0.45283-0.84678 0.0418 0.0275 0.021 0.19445 0.0281 0.27557 0.034 0.38658 0.11431 0.79038 0.35458 1.1066 0.15376 0.20239 0.41848 0.28652 0.67045 0.2532 0.3448-0.0456 0.6121-0.30083 0.80181-0.57547 0.38303-0.55451 0.60628-1.1965 0.88717-1.8044 0.17141-0.37095 0.3611-0.73982 0.65109-1.0387 1.2593-1.2978 2.3604-2.7415 3.3708-4.2381 1.5892-2.3539 2.9974-4.8461 4.0181-7.5 0.70487-1.8327 1.2566-3.7542 1.3344-5.7266 0.0626-1.5863-0.24434-3.2485-1.2212-4.5384z" fill="#a7654d"/>
   <path d="m143.28 197.63c0.35771-0.89095 0.77281-1.8128 0.7544-2.7828-0.01-0.52521-0.23171-1.0157-0.36881-1.5169-1.541-5.6336-2.4324-11.439-2.77-17.265-0.20443-3.5277-0.28692-7.0794 0.0851-10.597 0.46847-4.4293 2.0584-8.6243 3.5531-12.787 0.86217-2.4012 1.8396-4.7878 2.3027-7.2998 0.38084-2.0657 0.0624-4.1822-0.3366-6.2183-0.91647-4.6766-2.5771-9.2017-3.1256-13.946-0.22599-1.955-0.31084-4.0165 0.42614-5.8833 0.52011-1.3174 1.6427-2.3426 2.9675-2.8276 1.6188-0.5927 3.3901-0.65944 5.0846-0.4631 1.4953 0.17325 2.8815 0.9753 3.8312 2.1378 1.3145 1.6093 1.9648 3.6581 2.2527 5.6857 0.24414 1.7192 0.32439 3.4816 3e-3 5.1996-0.51361 2.7493-1.7594 5.2828-2.5354 7.9553-0.28709 0.98862-0.51259 2.0397-0.26385 3.0689 0.46448 1.9218 1.4898 3.6341 2.1228 5.5001 1.9276 5.6819 4.4787 11.151 5.9396 16.99 1.9218 7.6802 2.4306 15.637 2.3806 23.526-0.0159 2.5112-0.10599 5.028-0.41082 7.5209-0.16149 1.3207-0.2777 2.6741-0.7625 3.921-0.1424 0.36624-0.35345 0.73911-0.7534 0.89158-1.159 0.44185-2.3534 0.79733-3.5704 1.0485-0.33051 0.0682-0.91943 0.17228-0.86276-0.4037 0.0849-0.86289 0.52068-1.6497 0.48905-2.5418-0.12538-3.5356-0.74026-7.0261-1.2144-10.525-0.11871-0.87609-0.0216-1.8025-0.31429-2.6344-0.57112-1.6237-0.68671-3.3526-0.99007-5.0348-0.17207-0.95421-0.48876-2.0062-1.3548-2.5531-0.86923-0.54887-1.9453-0.654-2.942-0.56349-1.4083 0.12789-3.8058 0.13916-3.8868 1.5392-0.21377 3.6953-0.4345 7.4001-0.28914 11.1 0.0468 1.1916-0.01 2.4173 0.32824 3.5653 0.40684 1.3828 1.0826 2.7063 1.221 4.1533 0.035 0.36567 6e-3 0.83098-0.38173 1.0318-1.3906 0.71941-2.8002 1.5032-4.3683 1.741-0.80731 0.12242-1.7344-0.0226-2.2404-0.73194z" fill="#ff6e38"/>
   <path d="m165.92 154.67c-0.1939 0.36747-0.32279 0.77219-0.57076 1.1092-0.24892 0.33827-0.67187 0.47546-1.0674 0.54939-1.2265 0.22923-2.5339 0.16135-3.6822-0.36032-1.1684-0.53078-2.0816-1.485-2.8179-2.5146-1.3975-1.9544-2.3398-4.1928-3.7911-6.1144-1.6832-2.2286-3.4732-4.4126-5.6533-6.1763-0.79745-0.64516-1.6057-1.3069-2.5384-1.7354-0.52195-0.23985-1.0935-0.33551-1.6532-0.44485-0.64477-0.12596-1.3001-0.22078-1.9221-0.44038-0.23646-0.0835-0.444-0.22978-0.60992-0.42131-0.22672-0.26171-0.41245-0.62647-0.29977-0.97696 0.11949-0.37167 0.49164-0.58871 0.84759-0.68987 0.20292-0.0577 0.83573-0.0847 0.62497-0.0839-0.39864 2e-3 -0.80759 3e-3 -1.1826-0.15947-0.26156-0.1131-0.49764-0.36221-0.47544-0.66516 0.0266-0.36284 0.29577-0.65281 0.57036-0.86197 0.66555-0.50697 1.4499-0.84127 2.2534-1.0569 0.86709-0.23268 1.7874-0.38483 2.6753-0.21497 2.429 0.4647 4.7245 1.4877 6.8151 2.7901 3.0016 1.87 5.6596 4.2878 7.8246 7.0806 1.7396 2.2441 3.2086 4.7411 4.0321 7.4702 0.38294 1.269 0.62039 2.5891 0.6209 3.9173z" fill="#a7654d"/>
   <g fill="#714332">
    <path d="m145.15 125.84c-3e-3 -0.0404-0.0219-0.0826-9e-3 -0.12117 0.0135-0.0411 0.15293-0.1217 0.17541-0.13689 0.0599-0.0404 0.11959-0.081 0.17838-0.12294 0.0685-0.0489 0.13274-0.10393 0.20347-0.1495 0.073-0.047 0.15125-0.0853 0.22687-0.1279 0.19055-0.12192 0.25193-0.19554 0.47508-0.2209 0.069-8e-3 0.14244-9e-3 0.20815 0.0133 0.047 0.0162 0.27995 0.19659 0.31721 0.24076 0.0414 0.0491 0.066 0.11033 0.099 0.16546 0.0556 0.13766 0.0324 0.0903 0.0921 0.20551 9e-3 0.0176 0.0122 0.0403 0.0279 0.0525 7e-3 5e-3 0.0145-0.0261 0.0163-0.0181 0.0681 0.32816-0.0254 0.10724 0.065 0.29737 0.0201 0.0385 0.5634-0.24625 0.54328-0.28466-0.0103 0.0393-0.0332 0.12351-7e-3 0.12793 0.0403 7e-3 0.0286-0.0767 0.0395-0.11618 0.0751-0.27416 0.0367-0.47323-0.0636-0.74554-0.2031-0.28137-0.31536-0.51147-0.65436-0.66426-0.31912-0.14382-0.65385-0.15348-0.98526-0.0687-0.18855 0.0482-0.42472 0.18877-0.59962 0.28492-0.19424 0.1116-0.43859 0.23799-0.60515 0.39111-0.35373 0.32516-0.57206 0.67215-0.44013 1.1683 0.0239 0.0898 0.0966 0.15889 0.14481 0.23835 0.0288 0.039 0.58111-0.36959 0.55222-0.40864z" opacity=".8"/>
    <path d="m150.71 125.51c0.17327-0.13176 0.2476-0.35763 0.41039-0.49838 0.0689-0.0596 0.15902-0.0889 0.23877-0.13305 0.0979-0.054 0.19209-0.11515 0.29391-0.16115 0.0913-0.0413 0.49248-0.1678 0.58532-0.19778 0.13681-0.0388 0.3712-0.11581 0.52079-0.11962 0.0885-2e-3 0.17681 0.0127 0.26381 0.0286 0.0762 0.014 0.15292 0.0309 0.2244 0.0608 0.10484 0.044 0.33467 0.20643 0.4232 0.26624 0.15972 0.13317 0.15783 0.13271 0.29896 0.24704 0.0127 0.0103 0.0309 0.0159 0.0383 0.0304 0.0355 0.0694 3e-3 0.0397 7e-3 0.0774 3e-3 0.0365 0.0103 0.0728 0.0149 0.10931 2e-3 0.0456 0.64625 0.0185 0.64434-0.027 0.0127-0.0846 0.0259-0.15925 0.016-0.25062-7e-3 -0.0677-0.0308-0.13279-0.0507-0.19792-0.0564-0.18435-0.0944-0.29379-0.22312-0.4477-0.0744-0.0889-0.16588-0.16199-0.24881-0.24298-0.27847-0.19661-0.3719-0.29062-0.70925-0.40468-0.13467-0.0456-0.27495-0.0795-0.41665-0.091-0.13469-0.0103-0.26994 0.0137-0.40462 0.0247-0.30455 0.0248-0.34099 0.0382-0.6444 0.0906-0.31862 0.0761-0.48739 0.10152-0.79635 0.24316-0.41498 0.19015-0.81327 0.48666-1.041 0.89075-0.0631 0.11194-0.0949 0.2389-0.14227 0.35836-0.0244 0.0493 0.67262 0.39373 0.69697 0.34445z" opacity=".8"/>
    <path d="m145.5 128.95c0.045 0.10953 0.076 0.22595 0.13495 0.32867 0.3459 0.60294 0.98822 0.85014 1.5846 1.1273 0.50305 0.25806 1.0261 0.46495 1.5969 0.50404 0.3138 0.0215 0.90538-0.0306 1.2139-0.0984 0.19518-0.0429 0.38221-0.11689 0.57331-0.17533 0.13927-0.0504 0.83731-0.30186 0.99477-0.36282 0.42397-0.16411 0.82875-0.31032 1.1076-0.69438 0.0454-0.0626 0.0665-0.13967 0.0997-0.2095 0.0575-0.19022 0.061-0.1504 0.0251-0.41905-2e-3 -0.0136-0.0284-0.0429-0.0292-0.0292-3e-3 0.0598 0.0464 0.12418 0.0207 0.17825-0.0443 0.0936-0.18225 0.12779-0.21224 0.22692-0.0173 0.0571 0.10987-0.0468 0.16479-0.0702 0.17122-0.14637 0.15164-0.13083 0.24541-0.35231 0.0117-0.0443-0.61547-0.20942-0.62714-0.16508 0.11839-0.0854-0.0659 0.0606 0.0386 0.0174 0.27094-0.0736-0.0529-9.1e-4 -0.17825 0.20708-0.15249 0.25292 0.16424 0.3056 0.0139-7e-3 -0.0156-7e-3 -0.0299-0.0245-0.0467-0.0214-0.0663 0.0125-0.12794 0.0425-0.19106 0.0659-0.11182 0.0417-0.22253 0.0862-0.33364 0.12975-0.1492 0.0584-0.29649 0.12192-0.44727 0.17612-0.1629 0.0586-0.32892 0.10805-0.49338 0.16205-0.15738 0.0587-0.31477 0.11743-0.47216 0.17614-0.33555 0.1053-0.52875 0.18478-0.88275 0.21925-0.62035 0.0604-1.2291-0.1534-1.824-0.28895-0.19271-0.0702-0.41341-0.14224-0.59773-0.23788-0.31684-0.1644-0.5481-0.43395-0.83184-0.64326-0.0181-0.0458-0.66512 0.21021-0.64702 0.25596z" opacity=".8"/>
    <path d="m146.99 121.02c0.14579 0.27509 0.32979 0.53679 0.60277 0.70079 0.12631 0.0759 0.54683 0.2317 0.68141 0.26454 0.12045 0.0294 0.24522 0.0369 0.36783 0.0553 0.53367 0.0904 1.0999 0.12141 1.6154-0.0771 0.22845-0.088 0.37603-0.19998 0.57736-0.33247 0.489-0.45374 0.0314 8e-3 0.29374-0.33378 0.0203-0.0264 0.0491-0.045 0.0745-0.0665 7e-3 -6e-3 0.0654-0.0432 0.062-0.0552-0.0526-0.19539-0.12998-0.38327-0.19495-0.57491-0.0416 6e-3 0.0343 0.59342 0.0759 0.58805-0.0497-0.19338-0.0735-0.39532-0.14898-0.58017-0.0103-0.0255-0.0549 8e-3 -0.0806 0.0183-0.22909 0.0913-0.0714 0.0439-0.27242 0.16623-0.29688 0.18055 0.0687-0.10312-0.27077 0.17989-0.12031 0.0886-0.16624 0.14249-0.31144 0.17783-0.20792 0.0506-0.31158 0.0162-0.53716 0.0138-0.2195-2e-3 -0.5477 0.0114-0.76778 0.019-0.0941-8e-3 -0.18819-0.0156-0.28235-0.0224-0.0808-6e-3 -0.1626-2e-3 -0.24242-0.0157-0.12046-0.0205-0.1862-0.10278-0.27335-0.18331-0.12672-0.11702-0.23171-0.2256-0.35268-0.34772-0.0286-0.0436-0.64486 0.362-0.61618 0.40558z" opacity=".8"/>
   </g>
  </g>
 </g>
</svg>
