<?xml version="1.0" encoding="UTF-8" standalone="no"?>
<!DOCTYPE svg PUBLIC "-//W3C//DTD SVG 1.1//EN" "http://www.w3.org/Graphics/SVG/1.1/DTD/svg11.dtd">
<svg version="1.1" xmlns="http://www.w3.org/2000/svg" xmlns:xlink="http://www.w3.org/1999/xlink" preserveAspectRatio="xMidYMid meet" viewBox="0 0 120 120" width="120" height="120"><defs><path d="M22.1 118.44L7.25 13.72L97.92 3.56L112.75 105.93L22.1 118.44ZM37.11 67.8L55.83 48.86L66.88 104.55L73.19 103.65L64.85 47.73L84.69 59.45L88.97 53.59L58.76 34.2L31.03 62.38L37.11 67.8ZM54.51 19.37L53.44 20.05L52.55 20.94L51.87 22.01L51.44 23.22L51.29 24.54L51.44 25.86L51.87 27.07L52.55 28.13L53.44 29.02L54.51 29.7L55.72 30.14L57.04 30.29L58.36 30.14L59.57 29.7L60.63 29.02L61.52 28.13L62.2 27.07L62.64 25.86L62.79 24.54L62.64 23.22L62.2 22.01L61.52 20.94L60.63 20.05L59.57 19.37L58.36 18.94L57.04 18.79L55.72 18.94L54.51 19.37Z" id="cBrClsTe1"></path></defs><g><g><g><use xlink:href="#cBrClsTe1" opacity="1" fill="#ffcd5c" fill-opacity="1"></use></g></g></g></svg>